<svg width="16" height="16" viewBox="0 0 16 16" fill="none" xmlns="http://www.w3.org/2000/svg">
<path d="M0.0250752 6.84439C0.0268948 6.35989 -0.0322431 5.73865 0.0250752 5.27198C0.0550991 5.02973 0.227964 4.92421 0.456328 4.81571C1.307 4.41295 2.20954 4.06518 3.08387 3.6862C4.1156 3.23885 4.94535 2.89034 5.78693 2.16507C6.44927 1.59436 6.91237 0.889899 7.49283 0.263462C7.55743 0.193611 7.69572 0.038303 7.79125 0.0182392C7.93591 -0.0122281 8.2689 -0.0137133 8.37717 0.0866057C9.10502 0.876525 9.70095 1.76973 10.5889 2.45042C11.4769 3.1311 12.525 3.48705 13.5713 3.9396C14.1408 4.18556 14.7067 4.44714 15.2781 4.69682C15.531 4.80754 15.9332 4.88259 15.9741 5.17835C16.0333 5.60192 15.9723 6.21052 15.9741 6.65638C15.9741 6.66902 15.9741 6.68165 15.9741 6.69428C15.9741 6.80723 15.9741 6.92018 15.9741 7.03314C15.9741 7.03908 15.9741 7.04577 15.9741 7.05171C15.9805 9.90969 15.9705 12.7684 15.9723 15.6271C15.9186 15.7936 15.8113 15.8946 15.6238 15.96C15.6066 15.966 15.6056 15.992 15.5893 15.995C15.552 16.0017 15.3591 16.0017 15.3218 15.995C15.3027 15.9912 15.3036 15.9645 15.289 15.9586C15.0516 15.8605 14.9306 15.7341 14.9142 15.506V7.45522V9H1.5H1.13141V15.4963C1.08865 15.7445 0.994937 15.8753 0.711985 15.96C0.691059 15.9667 0.701068 15.9935 0.661036 15.9972C0.621004 16.0009 0.493629 16.0017 0.457237 15.995C0.44086 15.992 0.43995 15.9652 0.422664 15.9593C0.184292 15.8768 0.075115 15.7453 0.0250752 15.535C0.0350832 12.6503 0.0168864 9.76553 0.0259845 6.88154C0.0259845 6.86891 0.0259845 6.85628 0.0259845 6.84365L0.0250752 6.84439Z" fill="#010101"/>
</svg>
