<svg width="16" height="16" viewBox="0 0 16 16" fill="none" xmlns="http://www.w3.org/2000/svg">
<path d="M0 6.93651C0 6.10479 0.399402 5.32366 1.07366 4.83669L6.25408 1.09528C7.15939 0.441439 8.38184 0.44144 9.28716 1.09528L14.4676 4.83669C15.1418 5.32366 15.5412 6.10479 15.5412 6.93651V14.2461C15.5412 15.1998 14.7681 15.9729 13.8144 15.9729H9.49742C9.02058 15.9729 8.63402 15.5864 8.63402 15.1095V12.5193C8.63402 12.0425 8.24746 11.6559 7.77062 11.6559H5.39626C4.91942 11.6559 4.53286 12.0425 4.53286 12.5193V15.1095C4.53286 15.5864 4.1463 15.9729 3.66946 15.9729H1.7268C0.773116 15.9729 0 15.1998 0 14.2461V6.93651Z" fill="#010101"/>
</svg>
