<svg width="16" height="16" viewBox="0 0 16 16" fill="none" xmlns="http://www.w3.org/2000/svg">
<path d="M15.2806 9.6L14.4241 9.13333C13.4961 8.6 13.4961 7.33333 14.4241 6.8L15.2806 6.33333C15.9944 5.93333 16.2085 5.13333 15.7803 4.53333L15.0665 3.4C14.6382 2.73333 13.7817 2.53333 13.1393 2.93333L12.2827 3.4C11.3548 3.93333 10.1414 3.26667 10.1414 2.26667V1.33333C10.1414 0.6 9.49895 0 8.71379 0H7.28621C6.50105 0 5.85864 0.6 5.85864 1.33333V2.2C5.85864 3.2 4.64521 3.86667 3.71729 3.33333L2.86075 2.93333C2.14696 2.53333 1.29042 2.8 0.933526 3.4L0.21974 4.53333C-0.137152 5.2 0.0769834 6 0.71939 6.4L1.57593 6.86667C2.50385 7.33333 2.50385 8.66667 1.57593 9.13333L0.71939 9.6C0.00560487 10 -0.208531 10.8 0.21974 11.4L0.933526 12.5333C1.3618 13.2 2.21834 13.4 2.86075 13L3.71729 12.6C4.64521 12.0667 5.85864 12.7333 5.85864 13.7333V14.6667C5.85864 15.4 6.50105 16 7.28621 16H8.71379C9.49895 16 10.1414 15.4 10.1414 14.6667V13.8C10.1414 12.8 11.3548 12.1333 12.2827 12.6667L13.1393 13.1333C13.853 13.5333 14.7096 13.2667 15.0665 12.6667L15.7803 11.5333C16.1372 10.8 15.923 10 15.2806 9.6ZM8 10.6667C6.42967 10.6667 5.14486 9.46667 5.14486 8C5.14486 6.53333 6.42967 5.33333 8 5.33333C9.57033 5.33333 10.8551 6.53333 10.8551 8C10.8551 9.46667 9.57033 10.6667 8 10.6667Z" fill="#1B1B1B"/>
</svg>
