<svg width="12" height="10" viewBox="0 0 12 10" fill="none" xmlns="http://www.w3.org/2000/svg">
<path d="M7.18412 0H6.76532V0.195045L1.94922 2.05491V2.62572C1.94922 2.78335 2.08317 2.91113 2.24836 2.91113H2.64543C2.70819 2.58591 2.92844 2.29311 3.26542 2.14227C3.41451 2.07549 3.57299 2.04167 3.73647 2.04167C4.16546 2.04167 4.56036 2.28104 4.74253 2.65138C4.78414 2.736 4.81283 2.82322 4.82961 2.91115H6.76532V4.53328C6.80448 4.54487 6.84603 4.56008 6.88956 4.581C6.99668 4.632 7.09668 4.70872 7.18412 4.80541V2.91113H9.78661C9.95179 2.91113 10.0857 2.78335 10.0857 2.62572C10.0857 2.78335 10.2197 2.91113 10.3849 2.91113H11.7011C11.8663 2.91113 12.0002 2.78335 12.0002 2.62572V2.05491L7.18412 0.195045V0Z" fill="#676400"/>
<path d="M5.46251 3.80797C5.78573 3.80797 6.0525 3.73205 6.09809 3.63333C6.10571 3.74364 5.84005 3.87247 5.49548 3.92358C5.42964 3.93334 5.36559 3.93959 5.30489 3.94253C5.34917 4.25625 5.63071 4.49819 5.9717 4.49819C6.34341 4.49819 6.64476 4.21073 6.64476 3.85603C6.64476 3.50138 6.34341 3.21387 5.9717 3.21387C5.78719 3.21387 5.6201 3.2847 5.49853 3.39944C5.48656 3.39921 5.47469 3.39887 5.46254 3.39887C5.10732 3.39887 4.81934 3.49045 4.81934 3.60344C4.81934 3.63878 4.84763 3.67211 4.89738 3.70111C5.00639 3.76475 5.21859 3.80797 5.46251 3.80797Z" fill="#676400"/>
<path d="M5.48047 4.67274L5.5793 5.3383H5.96621H6.36947L6.46831 4.67274H6.366L6.41213 4.5015L6.41566 4.48828L6.37345 4.5015L6.03953 4.60573V4.84743H5.91987V4.60901L5.57541 4.5015L5.53321 4.48828L5.53674 4.5015L5.58286 4.67274H5.48047Z" fill="#676400"/>
<path d="M5.438 5.33789L5.3397 4.67578C5.28675 4.68135 5.21685 4.69662 5.13958 4.7338C4.9787 4.80989 4.8052 4.97645 4.68384 5.27156C4.56425 5.55996 4.48309 5.9742 4.47852 6.59267H4.95693C4.96093 5.9329 5.06387 5.55842 5.16504 5.36075V5.6223H5.18406H5.37398L5.43557 5.33789H5.438Z" fill="#676400"/>
<path d="M6.04395 9.64225C6.04395 9.83719 6.20958 9.9951 6.41377 9.9951C6.61802 9.9951 6.78365 9.83719 6.78365 9.64225V9.44727H6.04395V9.64225Z" fill="#676400"/>
<path d="M5.16504 9.44727V9.64225C5.16504 9.83719 5.33067 9.9951 5.53486 9.9951C5.73911 9.9951 5.90474 9.83719 5.90474 9.64225V9.44727H5.16504Z" fill="#676400"/>
<path d="M6.80896 4.7338C6.73169 4.69662 6.66175 4.68135 6.60886 4.67578L6.50488 5.37602L6.55819 5.6223H6.78353V5.36192C6.8013 5.39666 6.81916 5.43644 6.83681 5.48293C6.85245 5.52435 6.86762 5.57067 6.88201 5.6223H7.37432C7.31345 5.35579 7.2276 5.16265 7.12834 5.01792C7.03011 4.87562 6.91518 4.78438 6.80896 4.7338Z" fill="#676400"/>
<path d="M9.86133 9.61858H10.0857V9.98961H10.325V9.61858H11.4019V9.98961H11.6412V9.61858H11.8655V5.76562H9.86133V9.61858ZM10.1605 6.05109H11.5664V9.33312H10.1605V6.05109Z" fill="#676400"/>
<path d="M10.3545 6.25H11.3716V6.3927H10.3545V6.25Z" fill="#676400"/>
<path d="M10.3545 6.59766H11.3716V6.74036H10.3545V6.59766Z" fill="#676400"/>
<path d="M10.3545 6.94531H11.3716V7.08801H10.3545V6.94531Z" fill="#676400"/>
<path d="M10.3545 7.29199H11.3716V7.43469H10.3545V7.29199Z" fill="#676400"/>
<path d="M10.3545 7.63965H11.3716V7.78235H10.3545V7.63965Z" fill="#676400"/>
<path d="M10.3545 7.98633H11.3716V8.12903H10.3545V7.98633Z" fill="#676400"/>
<path d="M10.3545 8.33398H11.3716V8.47669H10.3545V8.33398Z" fill="#676400"/>
<path d="M9.29778 9.36118V6.67838H8.92386V5.70801H5.18465V6.67838H3.00098V9.36118H3.19542V9.44686V9.48559C3.08315 9.51653 3.00098 9.61514 3.00098 9.73221C3.00098 9.87408 3.1215 9.98907 3.2702 9.98907C3.4189 9.98907 3.53942 9.87408 3.53942 9.73221C3.53942 9.61514 3.45725 9.51653 3.34498 9.48559V9.44686V9.36118H8.95377V9.44686V9.48559C8.84151 9.51653 8.75933 9.61514 8.75933 9.73221C8.75933 9.87408 8.87986 9.98907 9.02856 9.98907C9.17726 9.98907 9.29778 9.87408 9.29778 9.73221C9.29778 9.61514 9.21561 9.51653 9.10334 9.48559V9.44686V9.36118H9.29778Z" fill="#676400"/>
<path d="M4.32933 5.42742C4.32933 5.38016 4.28913 5.3418 4.23959 5.3418H4.10599C4.09837 5.34865 4.09008 5.35495 4.08039 5.35986L3.70102 5.55111H4.08879C4.1156 5.55111 4.1374 5.57192 4.1374 5.59749C4.1374 5.62312 4.1156 5.64387 4.08879 5.64387H3.5473C3.53775 5.67726 3.52268 5.70931 3.50162 5.73868C3.49106 5.75341 3.47915 5.76682 3.46647 5.77944H4.08879C4.1156 5.77944 4.1374 5.80024 4.1374 5.82581C4.1374 5.85144 4.1156 5.87219 4.08879 5.87219H3.42321C3.4023 5.87219 3.38462 5.85955 3.37777 5.84185C3.35058 5.85484 3.32139 5.86449 3.2907 5.86999L3.18262 5.88935V6.26462C3.18262 6.31189 3.22282 6.35024 3.27236 6.35024H4.23959C4.28913 6.35024 4.32933 6.31189 4.32933 6.26462V5.42742ZM4.08879 6.10052H3.42321C3.39635 6.10052 3.3746 6.07977 3.3746 6.05414C3.3746 6.02857 3.39635 6.00776 3.42321 6.00776H4.08879C4.1156 6.00776 4.1374 6.02857 4.1374 6.05414C4.1374 6.07977 4.11563 6.10052 4.08879 6.10052Z" fill="#676400"/>
<path d="M3.57208 6.39648V6.40724V6.45474H3.50104C3.47349 6.45474 3.45117 6.47603 3.45117 6.50234C3.45117 6.5286 3.47349 6.54989 3.50104 6.54989H4.00954C4.03709 6.54989 4.05941 6.5286 4.05941 6.50234C4.05941 6.47603 4.03709 6.45474 4.00954 6.45474H3.93853V6.40724V6.39648H3.57208Z" fill="#676400"/>
<path d="M1.90734 4.60623C1.91063 4.60254 1.91407 4.59892 1.9173 4.59518C2.01314 4.48424 2.07073 4.34206 2.07073 4.18702C2.07073 3.83238 1.76943 3.54492 1.39767 3.54492C1.02596 3.54492 0.724609 3.83238 0.724609 4.18702C0.724609 4.34728 0.786261 4.49372 0.888028 4.60623H1.90734Z" fill="#676400"/>
<path d="M2.13162 5.463C2.14089 5.47884 2.14981 5.49465 2.15824 5.51014C2.19842 5.58207 2.23183 5.64957 2.25483 5.6984C2.26635 5.72277 2.27524 5.74249 2.28116 5.75588C2.28409 5.7625 2.28633 5.76764 2.28774 5.77086C2.28912 5.77409 2.28951 5.77489 2.28951 5.77489C2.32633 5.86268 2.41535 5.9183 2.51158 5.91836C2.52618 5.91836 2.54093 5.91707 2.55577 5.91439L3.27364 5.78596C3.37268 5.76824 3.44576 5.69466 3.46419 5.60578L4.0519 5.30951C4.08113 5.29478 4.09228 5.26022 4.07685 5.23236L3.86255 4.84544C3.84711 4.81755 3.81089 4.80691 3.78169 4.82164L2.95299 5.23944C2.92377 5.25417 2.91261 5.28873 2.92804 5.31658L2.96161 5.37718L2.65311 5.43237C2.61688 5.36014 2.56968 5.27212 2.51413 5.18219C2.44736 5.07493 2.36988 4.96474 2.27398 4.87001C2.22564 4.82269 2.17236 4.77871 2.1073 4.74264C2.07239 4.7234 2.03279 4.70639 1.98929 4.69463C1.96195 4.68376 1.93198 4.67773 1.90051 4.67773H0.744732C0.728399 4.67773 0.712485 4.67942 0.697109 4.68247C0.68652 4.68458 0.676349 4.68755 0.666358 4.69101C0.505243 4.7224 0.351337 4.8133 0.234733 4.95466C0.0873185 5.13307 -0.000209021 5.38619 3.74861e-07 5.70431C3.74861e-07 5.7877 0.00589337 5.87601 0.0184571 5.96948C0.0332345 6.08926 0.0966216 6.19546 0.173679 6.26418C0.267249 6.34775 0.368776 6.38805 0.45777 6.41202V5.38742H0.513499V9.64731C0.513499 9.84224 0.679131 10.0002 0.883322 10.0002C1.08757 10.0002 1.2532 9.84224 1.2532 9.64731V7.07094H1.39185V9.64731C1.39185 9.84224 1.55749 10.0002 1.76168 10.0002C1.96593 10.0002 2.13156 9.84224 2.13156 9.64731V5.463H2.13162ZM3.09137 5.245L3.6997 4.93837L3.90467 5.30845L3.46616 5.52952C3.46565 5.52618 3.46541 5.5229 3.46472 5.51954C3.44037 5.39556 3.31534 5.31396 3.18548 5.33719L3.14629 5.34415L3.09137 5.245Z" fill="#676400"/>
<path d="M3.3032 2.2194C2.7929 2.44789 2.57325 3.02784 2.81273 3.51476C2.92683 3.74688 3.12473 3.91573 3.35579 4.0044L3.29788 4.83168L3.66695 4.07267C3.83456 4.08377 4.0074 4.05572 4.1704 3.98277C4.68076 3.75427 4.90035 3.17433 4.66092 2.68735C4.42146 2.20045 3.81353 1.99096 3.3032 2.2194ZM4.089 3.87811C3.67284 4.0644 3.17729 3.89355 2.98202 3.4965C2.78677 3.0995 2.96577 2.62658 3.38187 2.44027C3.79803 2.25399 4.2937 2.42483 4.48898 2.82189C4.68426 3.21894 4.50516 3.6918 4.089 3.87811Z" fill="#676400"/>
<path d="M3.78431 3.03059C3.69978 3.02234 3.641 3.01093 3.60803 2.99637C3.57501 2.98187 3.56173 2.96215 3.5681 2.93729C3.57139 2.90992 3.59379 2.89086 3.63537 2.88004C3.67698 2.86928 3.71979 2.86431 3.76403 2.86511C3.86664 2.86511 3.95264 2.88669 4.02204 2.92981L4.13679 2.80289C4.05611 2.75138 3.9705 2.72044 3.88019 2.70942L3.89739 2.61621H3.73828L3.72075 2.71119C3.6538 2.72044 3.59278 2.73951 3.53795 2.76867C3.4608 2.80974 3.41479 2.86594 3.39986 2.93729C3.3867 3.00368 3.40106 3.05782 3.44288 3.09966C3.4847 3.14158 3.5777 3.17001 3.72185 3.18488C3.80379 3.19318 3.86254 3.20711 3.89808 3.22658C3.93358 3.2461 3.94722 3.27119 3.93897 3.30189C3.93224 3.33343 3.9087 3.35832 3.8684 3.37653C3.82808 3.39482 3.769 3.40518 3.69113 3.40764C3.5652 3.40687 3.45984 3.37493 3.37498 3.31183L3.25586 3.44126C3.33938 3.50716 3.44219 3.54666 3.56373 3.56079L3.53893 3.69513H3.69804L3.72209 3.56501C3.81869 3.55876 3.89891 3.5359 3.96242 3.496C4.03768 3.44874 4.08324 3.38446 4.09916 3.30312C4.11064 3.2409 4.0944 3.18282 4.05049 3.12891C4.00651 3.07503 3.91782 3.04226 3.78431 3.03059Z" fill="#676400"/>
</svg>
