<svg width="12" height="10" viewBox="0 0 12 10" fill="none" xmlns="http://www.w3.org/2000/svg">
<path fill-rule="evenodd" clip-rule="evenodd" d="M7.02797 0.113849C7.31919 0.333453 7.31079 0.677391 7.00281 0.889807L4.84781 2.3761C4.53118 2.59447 4.01305 2.59447 3.69642 2.3761L1.54143 0.889807C1.23341 0.67737 1.22504 0.333453 1.51626 0.113849C1.53215 0.101849 1.55245 0.0957031 1.57601 0.0957031H6.96819C6.99178 0.0957031 7.01205 0.101849 7.02797 0.113849Z" fill="#27A769"/>
<path fill-rule="evenodd" clip-rule="evenodd" d="M4.32895 2.08858L7.16248 4.04285C8.75241 5.13941 8.75241 6.93379 7.16248 8.03035C5.57256 9.12691 2.97087 9.12691 1.38094 8.03035C-0.209012 6.93379 -0.209012 5.13941 1.38094 4.04285L4.21447 2.08858C4.24598 2.06683 4.29742 2.06683 4.32895 2.08858Z" fill="#3DB078"/>
<path fill-rule="evenodd" clip-rule="evenodd" d="M3.12116 2.04883H5.42393C5.70757 2.04883 5.93961 2.20887 5.93961 2.40449V2.57652C5.93961 2.77214 5.70757 2.93218 5.42393 2.93218H3.12116C2.83752 2.93218 2.60547 2.77214 2.60547 2.57652V2.40449C2.6055 2.20887 2.83755 2.04883 3.12116 2.04883Z" fill="#CF6839"/>
<path d="M4.85029 6.12885C5.5055 5.93749 5.81174 5.41603 5.53429 4.96413C5.25683 4.51224 4.50076 4.30103 3.84555 4.49238C3.19033 4.68374 2.8841 5.2052 3.16155 5.6571C3.439 6.109 4.19508 6.32021 4.85029 6.12885Z" fill="#F8A805"/>
<path fill-rule="evenodd" clip-rule="evenodd" d="M9.49059 6.02897L11.2551 4.81199C11.2867 4.79024 11.3381 4.79024 11.3696 4.81199L11.4988 4.90107C11.5207 4.91616 11.5508 4.92126 11.5803 4.91486C11.6099 4.90847 11.6304 4.89243 11.6358 4.87143L11.81 4.20053C11.8148 4.18197 11.8069 4.16453 11.7876 4.1512C11.7682 4.13786 11.7429 4.13238 11.716 4.13572L10.7433 4.25586C10.7128 4.25961 10.6896 4.27376 10.6803 4.29411C10.671 4.31447 10.6784 4.33524 10.7003 4.35032L10.8417 4.44782C10.8732 4.46957 10.8732 4.50505 10.8417 4.5268L9.20106 5.6583C9.12222 5.71268 9.01544 5.73241 8.90775 5.71251C8.80034 5.69266 8.72228 5.63897 8.69325 5.56497C8.6931 5.56464 8.69301 5.56434 8.69286 5.56401L8.46323 5.01741C8.40937 4.88922 8.27205 4.79734 8.08465 4.76411C7.89725 4.73088 7.71272 4.76568 7.57588 4.86005L5.60989 6.21599C5.58623 6.2323 5.57953 6.25555 5.59234 6.27686C5.60514 6.29818 5.63369 6.31134 5.66716 6.31134H6.26507C6.28736 6.31134 6.30654 6.30586 6.32231 6.29499L7.83925 5.24878C7.86028 5.23428 7.88873 5.22901 7.91746 5.23432C7.94618 5.23963 7.967 5.25401 7.9747 5.27382L8.17355 5.78564C8.24834 5.97818 8.45097 6.11795 8.73017 6.16955C9.0094 6.22109 9.28621 6.16993 9.49059 6.02897Z" fill="#21323C"/>
<path fill-rule="evenodd" clip-rule="evenodd" d="M5.57805 8.18555H6.35705C6.40167 8.18555 6.43804 8.21063 6.43804 8.2414V9.18619C6.43804 9.21696 6.40167 9.24205 6.35705 9.24205H5.57805C5.53344 9.24205 5.49707 9.21696 5.49707 9.18619V8.2414C5.49707 8.21063 5.53347 8.18555 5.57805 8.18555Z" fill="#66568E"/>
<path fill-rule="evenodd" clip-rule="evenodd" d="M7.33587 7.23438H8.11486C8.15948 7.23438 8.19585 7.25946 8.19585 7.29023V9.1865C8.19585 9.21727 8.15948 9.24235 8.11486 9.24235H7.33587C7.29125 9.24235 7.25488 9.21727 7.25488 9.1865V7.29023C7.25491 7.25948 7.29128 7.23438 7.33587 7.23438Z" fill="#66568E"/>
<path fill-rule="evenodd" clip-rule="evenodd" d="M9.11028 6.63379H9.88928C9.93389 6.63379 9.97026 6.65887 9.97026 6.68964V9.18571C9.97026 9.21648 9.93389 9.24156 9.88928 9.24156H9.11028C9.06567 9.24156 9.0293 9.21648 9.0293 9.18571V6.68962C9.0293 6.65887 9.06567 6.63379 9.11028 6.63379Z" fill="#66568E"/>
<path fill-rule="evenodd" clip-rule="evenodd" d="M10.8984 5.8916H11.6774C11.722 5.8916 11.7583 5.91668 11.7583 5.94746V9.18566C11.7583 9.21644 11.722 9.24152 11.6774 9.24152H10.8984C10.8538 9.24152 10.8174 9.21644 10.8174 9.18566V5.94746C10.8174 5.91668 10.8538 5.8916 10.8984 5.8916Z" fill="#66568E"/>
<path fill-rule="evenodd" clip-rule="evenodd" d="M2.77539 1.97825L1.39302 1.02483C1.00063 0.754206 1.00063 0.312268 1.39302 0.0416225C1.45932 -0.00410665 1.52327 0.000101686 1.60461 0.000101686H6.92221C6.98045 0.000101686 7.03304 0.01681 7.07041 0.0436851C7.46191 0.320393 7.45735 0.755935 7.06744 1.02483L5.68507 1.97825C5.92168 2.06054 6.07912 2.22877 6.07912 2.41817V2.58775C6.07912 2.73808 5.98022 2.87425 5.82245 2.96529L7.2253 3.93283C7.51006 4.12923 7.75313 4.35348 7.94443 4.59525C8.24031 4.62119 8.47504 4.75692 8.5582 4.95487L8.78091 5.485C8.79357 5.51177 8.80218 5.53337 8.85277 5.54273C8.88936 5.54948 8.91793 5.5436 8.9437 5.52583L10.4722 4.4716L10.3367 4.37817C10.209 4.29004 10.2323 4.14662 10.4227 4.12308L11.6406 3.97267C11.7857 3.9536 11.9077 4.03939 11.8826 4.13598L11.6668 4.96689C11.641 5.09919 11.4294 5.13177 11.317 5.05423L11.1703 4.95312L9.51965 6.0916C9.23226 6.28981 8.82169 6.34352 8.44644 6.23758C8.41415 6.51548 8.32495 6.78833 8.1805 7.049C8.25281 7.07094 8.30332 7.12077 8.30332 7.17877V9.15825C8.30332 9.23652 8.21134 9.29996 8.09788 9.29996H7.17027C7.05681 9.29996 6.96483 9.23652 6.96483 9.15825V8.22904C6.83887 8.30223 6.70771 8.37002 6.57103 8.43231V9.15825C6.57103 9.23652 6.47905 9.29996 6.36559 9.29996H5.43798C5.32452 9.29996 5.23255 9.23652 5.23255 9.15825V8.8336C4.24186 8.99902 3.19481 8.91635 2.28109 8.59115C1.43509 8.29004 1.04842 8.03885 0.565385 7.46129C-0.383978 6.32608 -0.12257 4.86933 1.23525 3.93285L2.6381 2.96531C2.4803 2.87425 2.38144 2.73812 2.38144 2.58777V2.41819C2.38138 2.22877 2.53881 2.06052 2.77539 1.97825ZM5.18002 1.92585L6.77695 0.824456C6.98857 0.678477 7.00821 0.445373 6.82954 0.283498H1.63092C1.45222 0.445373 1.47185 0.678477 1.68351 0.824456L3.28044 1.92585H5.18002ZM3.05386 3.07925L1.52571 4.13321C0.298208 4.97981 0.0625061 6.29529 0.920041 7.32071C1.36417 7.85177 1.68989 8.06262 2.46879 8.33985C3.32298 8.64385 4.31173 8.71263 5.23245 8.5416V8.11673C5.23245 8.03848 5.32443 7.97504 5.43789 7.97504H6.3655C6.46431 7.97504 6.54677 8.02313 6.56647 8.08723C6.71451 8.00871 6.82905 7.9366 6.96474 7.84317V7.17877C6.96474 7.1005 7.05672 7.03706 7.17018 7.03706H7.74456C7.83913 6.88369 7.91172 6.72548 7.96229 6.56477C8.01787 6.38815 8.04732 6.20927 8.05058 6.03114C7.97201 5.9611 7.91323 5.87925 7.87777 5.78804L7.73806 5.42842L6.37426 6.369C6.33699 6.39521 6.28506 6.41148 6.22761 6.41148H5.4404C5.23542 6.41148 5.12589 6.267 5.26713 6.1696L7.34154 4.73892C7.39443 4.70244 7.45324 4.67244 7.51656 4.64917C7.35525 4.46152 7.16196 4.28994 6.93475 4.13323L5.40657 3.07925H3.05386ZM7.84409 4.8736C7.76331 4.88081 7.71217 4.88402 7.6321 4.93925L5.90839 6.12806H6.14258L7.69897 5.05464C7.80826 4.97925 8.00448 5.00885 8.04505 5.12498L8.27426 5.71496C8.3885 6.00898 8.91663 6.10675 9.22912 5.89123L11.0251 4.65256C11.1053 4.59723 11.2354 4.59723 11.3156 4.65256L11.33 4.6625L11.4279 4.28573L10.8816 4.35321L10.908 4.37144C10.9882 4.42677 10.9882 4.51648 10.908 4.57179L9.23422 5.72619C8.96146 5.91431 8.48664 5.83258 8.38768 5.56358L8.16497 5.03346C8.12292 4.93344 7.99415 4.87098 7.84409 4.8736ZM5.3653 2.20925H3.09519C2.92899 2.20925 2.79228 2.30354 2.79228 2.41817V2.58775C2.79228 2.70237 2.92899 2.79667 3.09519 2.79667H5.3653C5.5315 2.79667 5.66821 2.70237 5.66821 2.58775V2.41817C5.66821 2.30354 5.5315 2.20925 5.3653 2.20925ZM4.03642 5.77229H4.0898V5.80312C4.0898 5.88137 4.18178 5.94481 4.29523 5.94481C4.40869 5.94481 4.50067 5.88137 4.50067 5.80312V5.76221C4.84119 5.70133 4.96425 5.40587 4.71061 5.23094C4.56015 5.12717 4.41268 5.13787 4.22621 5.13787C4.16193 5.13787 4.16193 5.07025 4.22621 5.07025H4.57543C4.68889 5.07025 4.78087 5.00681 4.78087 4.92856C4.78087 4.85031 4.68889 4.78687 4.57543 4.78687H4.50067V4.75604C4.50067 4.67779 4.40869 4.61435 4.29523 4.61435C4.18175 4.61435 4.0898 4.67779 4.0898 4.75604V4.80117C3.76293 4.87152 3.65464 5.15814 3.90125 5.32823C4.05171 5.432 4.19918 5.42129 4.38564 5.42129C4.44992 5.42129 4.44992 5.48892 4.38564 5.48892H4.03642C3.92294 5.48892 3.83099 5.55235 3.83099 5.6306C3.83099 5.70885 3.92297 5.77229 4.03642 5.77229ZM4.30593 4.26206C3.49117 4.26206 2.83064 4.71764 2.83064 5.27958C2.83064 5.8415 3.4912 6.29708 4.30593 6.29708C5.12066 6.29708 5.78122 5.8415 5.78122 5.27958C5.78122 4.71764 5.12066 4.26206 4.30593 4.26206ZM5.05859 4.76046C4.64294 4.47379 3.96891 4.47379 3.55324 4.76046C3.1376 5.04712 3.1376 5.51202 3.55324 5.79869C3.96888 6.08535 4.64294 6.08535 5.05859 5.79869C5.47423 5.512 5.47423 5.04712 5.05859 4.76046ZM6.16007 8.25844H5.64336V9.01656H6.16007V8.25844ZM7.89239 7.32046H7.37567V9.01654H7.89239V7.32046ZM8.91953 6.44577C8.80608 6.44577 8.71407 6.50921 8.71407 6.58748V9.15825C8.71407 9.23652 8.80605 9.29996 8.91953 9.29996H9.84715C9.96063 9.29996 10.0526 9.23652 10.0526 9.15825V6.58748C10.0526 6.50923 9.9606 6.44577 9.84715 6.44577H8.91953ZM9.64168 6.72917H9.12497V9.01654H9.64168V6.72917ZM10.6826 5.71414C10.5691 5.71414 10.4771 5.77758 10.4771 5.85583V9.15823C10.4771 9.2365 10.5691 9.29994 10.6826 9.29994H11.6102C11.7236 9.29994 11.8156 9.2365 11.8156 9.15823V5.85583C11.8156 5.77758 11.7236 5.71414 11.6102 5.71414H10.6826ZM11.4047 5.99754H10.888V9.01656H11.4047V5.99754H11.4047ZM0.570883 10C0.457427 10 0.365448 9.93656 0.365448 9.85829C0.365448 9.78004 0.457427 9.7166 0.570883 9.7166H11.7945C11.908 9.7166 12 9.78004 12 9.85829C12 9.93654 11.908 10 11.7945 10H0.570883Z" fill="black"/>
</svg>
