<svg width="12" height="10" viewBox="0 0 12 10" fill="none" xmlns="http://www.w3.org/2000/svg">
<path d="M11.5118 5.45445H2.24366C1.97425 5.45445 1.75586 5.25095 1.75586 4.99991V0.454538C1.75586 0.203497 1.97425 0 2.24366 0H11.5118C11.7812 0 11.9996 0.203497 11.9996 0.454538V4.99991C11.9996 5.25095 11.7812 5.45445 11.5118 5.45445Z" fill="#80D261"/>
<path d="M11.5121 0H10.8292C11.0986 0 11.317 0.203497 11.317 0.454538V4.99991C11.317 5.25095 11.0986 5.45445 10.8292 5.45445H11.5121C11.7815 5.45445 11.9999 5.25095 11.9999 4.99991V0.454538C11.9999 0.203497 11.7815 0 11.5121 0Z" fill="#68CA44"/>
<path d="M11.2199 1.15438C10.9672 1.15438 10.7616 0.962783 10.7616 0.72727C10.7616 0.636812 10.6829 0.563477 10.5858 0.563477H3.17125C3.07417 0.563477 2.99547 0.636812 2.99547 0.72727C2.99547 0.962783 2.78985 1.15438 2.53711 1.15438C2.44003 1.15438 2.36133 1.22771 2.36133 1.31817V4.13631C2.36133 4.22677 2.44003 4.30011 2.53711 4.30011C2.78985 4.30011 2.99547 4.4917 2.99547 4.72721C2.99547 4.81767 3.07417 4.89101 3.17125 4.89101H10.5858C10.6829 4.89101 10.7616 4.81767 10.7616 4.72721C10.7616 4.4917 10.9672 4.30011 11.2199 4.30011C11.317 4.30011 11.3957 4.22677 11.3957 4.13631V1.31817C11.3957 1.22769 11.317 1.15438 11.2199 1.15438Z" fill="#ADE194"/>
<path d="M6.87755 4.00047C7.63187 4.00047 8.24337 3.43067 8.24337 2.72777C8.24337 2.02488 7.63187 1.45508 6.87755 1.45508C6.12322 1.45508 5.51172 2.02488 5.51172 2.72777C5.51172 3.43067 6.12322 4.00047 6.87755 4.00047Z" fill="#80D261"/>
<path d="M9.65878 3.0915C9.8743 3.0915 10.049 2.9287 10.049 2.72788C10.049 2.52706 9.8743 2.36426 9.65878 2.36426C9.44327 2.36426 9.26855 2.52706 9.26855 2.72788C9.26855 2.9287 9.44327 3.0915 9.65878 3.0915Z" fill="#80D261"/>
<path d="M4.09726 3.0915C4.31278 3.0915 4.48749 2.9287 4.48749 2.72788C4.48749 2.52706 4.31278 2.36426 4.09726 2.36426C3.88174 2.36426 3.70703 2.52706 3.70703 2.72788C3.70703 2.9287 3.88174 3.0915 4.09726 3.0915Z" fill="#80D261"/>
<path d="M4.16857 4.00007L3.99204 3.92377L3.90162 3.90918H3.85359H0.341457C0.152881 3.90918 0 4.05164 0 4.22735V9.6818C0 9.85752 0.152881 9.99998 0.341457 9.99998H4.53653C4.72511 9.99998 4.87799 9.85752 4.87799 9.6818V5.71263L4.41053 4.23688L4.16857 4.00007Z" fill="#918291"/>
<path d="M4.53637 3.90918H3.85345C4.04203 3.90918 4.19491 4.05164 4.19491 4.22735V9.6818C4.19491 9.85752 4.04203 9.99998 3.85345 9.99998H4.53637C4.72494 9.99998 4.87782 9.85752 4.87782 9.6818V4.22735C4.87782 4.05164 4.72494 3.90918 4.53637 3.90918Z" fill="#7A6D79"/>
<path d="M3.92219 6.56409C3.92219 6.44348 3.81726 6.3457 3.68781 6.3457H2.84961C2.72016 6.3457 2.61523 6.44348 2.61523 6.56409V7.34515C2.61523 7.46577 2.72016 7.56354 2.84961 7.56354H3.68781C3.81726 7.56354 3.92219 7.46577 3.92219 7.34515V6.56409Z" fill="#EAF6FF"/>
<path d="M2.84961 9.10846H3.68781C3.81726 9.10846 3.92219 9.01069 3.92219 8.89007V8.10902C3.92219 7.9884 3.81726 7.89062 3.68781 7.89062H2.84961C2.72016 7.89062 2.61523 7.9884 2.61523 8.10902V8.89007C2.61523 9.01069 2.72016 9.10846 2.84961 9.10846Z" fill="#FE9738"/>
<path d="M2.02864 6.3457H1.19043C1.06098 6.3457 0.956055 6.44348 0.956055 6.56409V7.34515C0.956055 7.46577 1.06098 7.56354 1.19043 7.56354H2.02864C2.15808 7.56354 2.26301 7.46577 2.26301 7.34515V6.56409C2.26301 6.44348 2.15808 6.3457 2.02864 6.3457Z" fill="#EAF6FF"/>
<path d="M0.956055 8.89007C0.956055 9.01069 1.06098 9.10846 1.19043 9.10846H2.02864C2.15808 9.10846 2.26301 9.01069 2.26301 8.89007V8.10902C2.26301 7.9884 2.15808 7.89062 2.02864 7.89062H1.19043C1.06098 7.89062 0.956055 7.9884 0.956055 8.10902V8.89007Z" fill="#EAF6FF"/>
<path d="M0.956055 5.27307V4.81853C0.956055 4.71811 1.04341 4.63672 1.15117 4.63672H3.7264C3.83417 4.63672 3.92152 4.71811 3.92152 4.81853V5.27307C3.92152 5.37348 3.83417 5.45488 3.7264 5.45488H1.15117C1.04341 5.45488 0.956055 5.37348 0.956055 5.27307Z" fill="#EAF6FF"/>
<path d="M9.10968 8.49978H9.43895V6.4089C9.43895 6.28339 9.54814 6.18164 9.68284 6.18164H10.5121C10.6468 6.18164 10.756 6.28339 10.756 6.4089V8.49978H11.0796C11.1531 8.49978 11.2227 8.53778 11.2523 8.60045C11.2801 8.65918 11.2704 8.72435 11.2316 8.77248L10.3354 9.88586C10.2978 9.93268 10.2464 9.96953 10.1865 9.98698C10.064 10.0227 9.93624 9.98123 9.86333 9.89064L8.96669 8.77663C8.9467 8.7518 8.93236 8.72293 8.92823 8.69213C8.91431 8.58825 9.00091 8.49978 9.10968 8.49978Z" fill="#FD8087"/>
<path d="M8.01202 7.6816H7.68275V9.77247C7.68275 9.89798 7.57356 9.99973 7.43884 9.99973H6.60959C6.47489 9.99973 6.3657 9.89798 6.3657 9.77247V7.6816H6.0421C5.9686 7.6816 5.89899 7.6436 5.86939 7.58092C5.84164 7.52219 5.85134 7.45702 5.89011 7.40889L6.78625 6.29551C6.82394 6.24869 6.87527 6.21185 6.9352 6.1944C7.05775 6.15871 7.18546 6.20014 7.25837 6.29073L8.15504 7.40474C8.17503 7.42957 8.18937 7.45844 8.1935 7.48924C8.20737 7.59313 8.12077 7.6816 8.01202 7.6816Z" fill="#80D261"/>
</svg>
