<svg width="16" height="16" viewBox="0 0 16 16" fill="none" xmlns="http://www.w3.org/2000/svg">
<path d="M16.0024 12.2182L14.7716 11.6468V10.2858C14.7702 9.47628 14.4606 8.69332 13.8975 8.07532C13.3344 7.45732 12.5542 7.04407 11.6947 6.90864V5.71436H10.4639V6.90864C9.60446 7.04407 8.82422 7.45732 8.26115 8.07532C7.69809 8.69332 7.38847 9.47628 7.38702 10.2858V11.6468L6.15625 12.2182V14.8572H9.84856V16.0001H12.3101V14.8572H16.0024V12.2182ZM14.7716 13.7144H7.38702V12.9248L8.61779 12.3533V10.2858C8.61779 9.67957 8.87713 9.09819 9.33876 8.66954C9.80038 8.24089 10.4265 8.00007 11.0793 8.00007C11.7322 8.00007 12.3583 8.24089 12.8199 8.66954C13.2815 9.09819 13.5409 9.67957 13.5409 10.2858V12.3533L14.7716 12.9248V13.7144Z" fill="#FFA36B"/>
<path d="M14.7692 2.28571C14.7692 1.98261 14.6396 1.69192 14.4087 1.47759C14.1779 1.26326 13.8649 1.14286 13.5385 1.14286H11.0769V0H9.84615V1.14286H4.92308V0H3.69231V1.14286H1.23077C0.904349 1.14286 0.591298 1.26326 0.360484 1.47759C0.12967 1.69192 0 1.98261 0 2.28571V13.7143C0 14.0174 0.12967 14.3081 0.360484 14.5224C0.591298 14.7367 0.904349 14.8571 1.23077 14.8571H3.69231V13.7143H1.23077V2.28571H3.69231V3.42857H4.92308V2.28571H9.84615V3.42857H11.0769V2.28571H13.5385V5.71429H14.7692V2.28571Z" fill="#FFA36B"/>
</svg>
