<svg width="16" height="16" viewBox="0 0 16 16" fill="none" xmlns="http://www.w3.org/2000/svg">
<path d="M9.57762 0H9.01922V0.312072L2.59766 3.28786V4.20115C2.59766 4.45336 2.77626 4.6578 2.99651 4.6578H3.52595C3.60963 4.13745 3.90331 3.66897 4.35262 3.42764C4.55141 3.32078 4.76272 3.26667 4.9807 3.26667C5.55269 3.26667 6.07922 3.64966 6.32212 4.2422C6.3776 4.3776 6.41585 4.51715 6.43823 4.65784H9.01922V7.25324C9.07143 7.27178 9.12683 7.29612 9.18487 7.32959C9.3277 7.41119 9.46103 7.53394 9.57762 7.68865V4.6578H13.0477C13.2679 4.6578 13.4465 4.45336 13.4465 4.20115C13.4465 4.45336 13.6251 4.6578 13.8454 4.6578H15.6003C15.8206 4.6578 15.9992 4.45336 15.9992 4.20115V3.28786L9.57762 0.312072V0Z" fill="#FFA268"/>
<path d="M7.28336 6.09265C7.71432 6.09265 8.07002 5.97118 8.13081 5.81322C8.14098 5.98972 7.78675 6.19585 7.32731 6.27763C7.23952 6.29325 7.15413 6.30325 7.0732 6.30795C7.13223 6.8099 7.50764 7.197 7.96229 7.197C8.45791 7.197 8.85971 6.73707 8.85971 6.16955C8.85971 5.60212 8.45791 5.14209 7.96229 5.14209C7.71628 5.14209 7.49348 5.25543 7.33138 5.439C7.31543 5.43864 7.29959 5.43809 7.2834 5.43809C6.80976 5.43809 6.42578 5.58463 6.42578 5.76541C6.42578 5.82195 6.46351 5.87528 6.52984 5.92168C6.67518 6.02351 6.95813 6.09265 7.28336 6.09265Z" fill="#FFA268"/>
<path d="M7.30469 7.47579L7.43647 8.5407H7.95235H8.49004L8.62183 7.47579H8.48542L8.54692 7.20181L8.55163 7.18066L8.49535 7.20181L8.05011 7.36857V7.75531H7.89057V7.37383L7.43128 7.20181L7.37501 7.18066L7.37971 7.20181L7.44122 7.47579H7.30469Z" fill="#FFA268"/>
<path d="M7.24808 8.54082L7.11701 7.48145C7.04642 7.49035 6.9532 7.51478 6.85018 7.57428C6.63568 7.69602 6.40434 7.96252 6.24252 8.4347C6.08306 8.89614 5.97485 9.55891 5.96875 10.5485H6.60664C6.61198 9.49284 6.74923 8.89367 6.88412 8.5774V8.99587H6.90949H7.16272L7.24485 8.54082H7.24808Z" fill="#FFA268"/>
<path d="M8.05859 15.4272C8.05859 15.7391 8.27944 15.9918 8.5517 15.9918C8.82404 15.9918 9.04488 15.7391 9.04488 15.4272V15.1152H8.05859V15.4272Z" fill="#FFA268"/>
<path d="M6.88672 15.1152V15.4272C6.88672 15.7391 7.10756 15.9918 7.37982 15.9918C7.65216 15.9918 7.87301 15.7391 7.87301 15.4272V15.1152H6.88672Z" fill="#FFA268"/>
<path d="M9.07731 7.57428C8.97429 7.51478 8.88104 7.49035 8.81052 7.48145L8.67188 8.60183L8.74295 8.99587H9.04341V8.57927C9.0671 8.63484 9.09091 8.6985 9.11444 8.77289C9.1353 8.83915 9.15553 8.91326 9.17471 8.99587H9.83115C9.74998 8.56945 9.63551 8.26044 9.50317 8.02887C9.37218 7.80119 9.21894 7.6552 9.07731 7.57428Z" fill="#FFA268"/>
<path d="M13.1484 15.3889H13.4476V15.9825H13.7667V15.3889H15.2025V15.9825H15.5216V15.3889H15.8208V9.22412H13.1484V15.3889ZM13.5474 9.68086H15.4219V14.9321H13.5474V9.68086Z" fill="#FFA268"/>
<path d="M13.8047 10.0005H15.1608V10.2288H13.8047V10.0005Z" fill="#FFA268"/>
<path d="M13.8047 10.5562H15.1608V10.7845H13.8047V10.5562Z" fill="#FFA268"/>
<path d="M13.8047 11.1118H15.1608V11.3401H13.8047V11.1118Z" fill="#FFA268"/>
<path d="M13.8047 11.6675H15.1608V11.8958H13.8047V11.6675Z" fill="#FFA268"/>
<path d="M13.8047 12.2231H15.1608V12.4515H13.8047V12.2231Z" fill="#FFA268"/>
<path d="M13.8047 12.7783H15.1608V13.0066H13.8047V12.7783Z" fill="#FFA268"/>
<path d="M13.8047 13.334H15.1608V13.5623H13.8047V13.334Z" fill="#FFA268"/>
<path d="M12.3959 14.9779V10.6854H11.8973V9.13281H6.9116V10.6854H4V14.9779H4.25926V15.115V15.1769C4.10957 15.2264 4 15.3842 4 15.5715C4 15.7985 4.1607 15.9825 4.35897 15.9825C4.55724 15.9825 4.71794 15.7985 4.71794 15.5715C4.71794 15.3842 4.60837 15.2264 4.45868 15.1769V15.115V14.9779H11.9372V15.115V15.1769C11.7875 15.2264 11.6779 15.3842 11.6779 15.5715C11.6779 15.7985 11.8386 15.9825 12.0369 15.9825C12.2352 15.9825 12.3959 15.7985 12.3959 15.5715C12.3959 15.3842 12.2863 15.2264 12.1366 15.1769V15.115V14.9779H12.3959Z" fill="#FFA268"/>
<path d="M5.77116 8.68387C5.77116 8.60825 5.71755 8.54688 5.6515 8.54688H5.47337C5.4632 8.55783 5.45215 8.56793 5.43923 8.57578L4.9334 8.88178H5.45044C5.48618 8.88178 5.51525 8.91507 5.51525 8.95598C5.51525 8.99699 5.48618 9.03019 5.45044 9.03019H4.72843C4.71571 9.08362 4.69561 9.1349 4.66753 9.18189C4.65345 9.20545 4.63757 9.22691 4.62066 9.2471H5.45044C5.48618 9.2471 5.51525 9.28039 5.51525 9.3213C5.51525 9.36231 5.48618 9.39551 5.45044 9.39551H4.56299C4.53511 9.39551 4.51153 9.37528 4.5024 9.34697C4.46614 9.36774 4.42722 9.38318 4.38629 9.39199L4.24219 9.42295V10.0234C4.24219 10.099 4.29579 10.1604 4.36184 10.1604H5.6515C5.71755 10.1604 5.77116 10.099 5.77116 10.0234V8.68387ZM5.45044 9.76082H4.56299C4.52717 9.76082 4.49817 9.72763 4.49817 9.68662C4.49817 9.6457 4.52717 9.61241 4.56299 9.61241H5.45044C5.48618 9.61241 5.51525 9.6457 5.51525 9.68662C5.51525 9.72763 5.48622 9.76082 5.45044 9.76082Z" fill="#FFA268"/>
<path d="M4.76278 10.2344V10.2516V10.3276H4.66805C4.63132 10.3276 4.60156 10.3616 4.60156 10.4037C4.60156 10.4458 4.63132 10.4798 4.66805 10.4798H5.34607C5.3828 10.4798 5.41255 10.4458 5.41255 10.4037C5.41255 10.3616 5.3828 10.3276 5.34607 10.3276H5.25138V10.2516V10.2344H4.76278Z" fill="#FFA268"/>
<path d="M2.54184 7.36947C2.54622 7.36358 2.55081 7.35778 2.55512 7.3518C2.68291 7.1743 2.75969 6.9468 2.75969 6.69875C2.75969 6.13132 2.35796 5.67139 1.86227 5.67139C1.36665 5.67139 0.964844 6.13132 0.964844 6.69875C0.964844 6.95516 1.04705 7.18946 1.18274 7.36947H2.54184Z" fill="#FFA268"/>
<path d="M2.8422 8.7403C2.85457 8.76565 2.86645 8.79095 2.8777 8.81574C2.93127 8.93082 2.97582 9.03882 3.00649 9.11695C3.02185 9.15594 3.03369 9.1875 3.04159 9.20892C3.0455 9.21951 3.04849 9.22773 3.05036 9.23289C3.0522 9.23805 3.05272 9.23933 3.05272 9.23933C3.10182 9.37979 3.22052 9.46879 3.34883 9.46888C3.36829 9.46888 3.38795 9.46683 3.40774 9.46254L4.36491 9.25705C4.49697 9.22869 4.59441 9.11096 4.61898 8.96876L5.40261 8.49472C5.44158 8.47116 5.45646 8.41586 5.43587 8.37129L5.15014 7.75221C5.12955 7.7076 5.08125 7.69057 5.04233 7.71413L3.93738 8.38261C3.89841 8.40618 3.88353 8.46148 3.90411 8.50604L3.94886 8.60299L3.53752 8.69131C3.48922 8.57573 3.42628 8.4349 3.35222 8.29101C3.26319 8.1194 3.15989 7.94309 3.03202 7.79153C2.96756 7.71582 2.89653 7.64545 2.80977 7.58773C2.76323 7.55695 2.71042 7.52973 2.65243 7.51092C2.61597 7.49352 2.57601 7.48389 2.53405 7.48389H0.99299C0.971212 7.48389 0.949993 7.48658 0.929492 7.49147C0.915373 7.49485 0.901812 7.4996 0.88849 7.50512C0.673666 7.55535 0.468456 7.70079 0.312982 7.92697C0.116426 8.21242 -0.000278699 8.61742 4.99822e-07 9.1264C4.99822e-07 9.25983 0.00785794 9.40112 0.0246098 9.55067C0.0443133 9.74233 0.128831 9.91224 0.231576 10.0222C0.356338 10.1559 0.491709 10.2204 0.610368 10.2587V8.61938H0.684675V15.4352C0.684675 15.7471 0.905521 15.9998 1.17778 15.9998C1.45012 15.9998 1.67096 15.7471 1.67096 15.4352V11.313H1.85583V15.4352C1.85583 15.7471 2.07668 15.9998 2.34894 15.9998C2.62128 15.9998 2.84212 15.7471 2.84212 15.4352V8.7403H2.8422ZM4.12189 8.39152L4.933 7.9009L5.20629 8.49303L4.62161 8.84675C4.62093 8.84141 4.62062 8.83616 4.6197 8.83077C4.58723 8.6324 4.42051 8.50184 4.24737 8.53901L4.19512 8.55016L4.12189 8.39152Z" fill="#FFA268"/>
<path d="M4.40428 3.55172C3.72387 3.91731 3.43099 4.84522 3.75031 5.6243C3.90244 5.99569 4.16632 6.26585 4.4744 6.40773L4.39718 7.73136L4.88928 6.51696C5.11276 6.53472 5.34322 6.48983 5.56056 6.37311C6.24104 6.00752 6.53384 5.07962 6.2146 4.30044C5.89532 3.5214 5.08472 3.18622 4.40428 3.55172ZM5.45203 6.20566C4.89714 6.50371 4.2364 6.23037 3.97603 5.59508C3.71569 4.95988 3.95437 4.20322 4.50918 3.90512C5.06406 3.60707 5.72497 3.88042 5.98534 4.5157C6.24571 5.15099 6.00692 5.90756 5.45203 6.20566Z" fill="#FFA268"/>
<path d="M5.04446 4.84904C4.93174 4.83584 4.85337 4.81758 4.80942 4.79429C4.76538 4.77109 4.74767 4.73954 4.75617 4.69976C4.76056 4.65597 4.79043 4.62547 4.84587 4.60816C4.90135 4.59094 4.95843 4.583 5.01742 4.58428C5.15423 4.58428 5.2689 4.6188 5.36143 4.6878L5.51443 4.48473C5.40686 4.4023 5.29271 4.3528 5.17229 4.33518L5.19523 4.18604H4.98308L4.9597 4.33801C4.87044 4.3528 4.78907 4.38331 4.71596 4.42998C4.6131 4.49569 4.55176 4.5856 4.53185 4.69976C4.5143 4.80598 4.53345 4.8926 4.58921 4.95955C4.64497 5.02663 4.76897 5.07211 4.96118 5.0959C5.07043 5.10919 5.14876 5.13148 5.19615 5.16262C5.24349 5.19385 5.26168 5.23399 5.25067 5.28313C5.24169 5.33359 5.2103 5.37341 5.15658 5.40254C5.10281 5.43181 5.02404 5.44839 4.92022 5.45232C4.7523 5.45108 4.61182 5.39998 4.49867 5.29902L4.33984 5.50611C4.4512 5.61155 4.58829 5.67475 4.75035 5.69735L4.71728 5.9123H4.92943L4.9615 5.70411C5.09029 5.69411 5.19726 5.65753 5.28194 5.59369C5.38229 5.51807 5.44304 5.41524 5.46426 5.28509C5.47957 5.18554 5.45791 5.09262 5.39936 5.00636C5.34073 4.92014 5.22247 4.86772 5.04446 4.84904Z" fill="#FFA268"/>
</svg>
