<svg width="16" height="16" viewBox="0 0 16 16" fill="none" xmlns="http://www.w3.org/2000/svg">
<path d="M16 3.55556V4.74074H0V3.55556C0 3.24123 0.12967 2.93977 0.360484 2.7175C0.591298 2.49524 0.904349 2.37037 1.23077 2.37037H3.07692V0.592593C3.07692 0.435427 3.14176 0.284699 3.25717 0.173566C3.37257 0.0624337 3.5291 0 3.69231 0C3.85552 0 4.01204 0.0624337 4.12745 0.173566C4.24286 0.284699 4.30769 0.435427 4.30769 0.592593V2.37037H11.6923V0.592593C11.6923 0.435427 11.7571 0.284699 11.8726 0.173566C11.988 0.0624337 12.1445 0 12.3077 0C12.4709 0 12.6274 0.0624337 12.7428 0.173566C12.8582 0.284699 12.9231 0.435427 12.9231 0.592593V2.37037H14.7692C15.0957 2.37037 15.4087 2.49524 15.6395 2.7175C15.8703 2.93977 16 3.24123 16 3.55556ZM0 5.92593H16V14.8148C16 15.1291 15.8703 15.4306 15.6395 15.6529C15.4087 15.8751 15.0957 16 14.7692 16H1.23077C0.904349 16 0.591298 15.8751 0.360484 15.6529C0.12967 15.4306 0 15.1291 0 14.8148V5.92593ZM4.52308 10.163L5.75385 11.3007C5.81203 11.3527 5.85555 11.418 5.88031 11.4905C5.90507 11.5631 5.91026 11.6405 5.89538 11.7156L5.61231 13.3274C5.5973 13.4144 5.60778 13.5037 5.64256 13.5852C5.67734 13.6668 5.73506 13.7374 5.80921 13.7891C5.88337 13.8408 5.97103 13.8716 6.06235 13.8779C6.15367 13.8843 6.24503 13.8661 6.32615 13.8252L7.82154 13.0667C7.89307 13.0318 7.97213 13.0136 8.05231 13.0136C8.13249 13.0136 8.21154 13.0318 8.28308 13.0667L9.77846 13.8252C9.85842 13.8584 9.9461 13.8706 10.0326 13.8606C10.119 13.8505 10.2012 13.8185 10.2706 13.7679C10.3401 13.7173 10.3943 13.6499 10.4279 13.5725C10.4614 13.4951 10.473 13.4105 10.4615 13.3274L10.1785 11.7156C10.1636 11.6405 10.1688 11.5631 10.1935 11.4905C10.2183 11.418 10.2618 11.3527 10.32 11.3007L11.5508 10.163C11.6152 10.1006 11.6606 10.0223 11.682 9.93669C11.7034 9.8511 11.6999 9.7615 11.6719 9.67769C11.644 9.59388 11.5926 9.51909 11.5235 9.46149C11.4544 9.40389 11.3701 9.36571 11.28 9.35111L9.6 9.12C9.52405 9.11172 9.45114 9.08653 9.38705 9.04642C9.32297 9.0063 9.26946 8.95237 9.23077 8.88889L8.48 7.42519C8.43905 7.34661 8.37621 7.28054 8.29851 7.23438C8.2208 7.18821 8.1313 7.16376 8.04 7.16376C7.9487 7.16376 7.8592 7.18821 7.7815 7.23438C7.70379 7.28054 7.64095 7.34661 7.6 7.42519L6.84308 8.88889C6.80807 8.9579 6.75617 9.01769 6.69186 9.06311C6.62754 9.10853 6.55272 9.13822 6.47385 9.14963L4.8 9.38074C4.71519 9.39775 4.63644 9.43575 4.57152 9.49099C4.50661 9.54623 4.45776 9.61682 4.42981 9.69578C4.40185 9.77474 4.39575 9.85936 4.41211 9.94128C4.42846 10.0232 4.46671 10.0996 4.52308 10.163Z" fill="#FFA167"/>
</svg>
