<svg width="16" height="16" viewBox="0 0 16 16" fill="none" xmlns="http://www.w3.org/2000/svg">
<path d="M15.8535 13.6466L14.3535 12.1466C14.0382 11.8313 13.5002 12.056 13.5002 12.5V13.3333H2.66701V2.49986H3.50033C3.94632 2.49986 4.16832 1.95985 3.85366 1.64652L2.35368 0.146502C2.15835 -0.0488338 1.84168 -0.0488338 1.64635 0.146502L0.14704 1.64652C-0.166956 1.95985 0.0550408 2.49986 0.500368 2.49986H1.33369V13.3333H0.667033C0.298371 13.3333 0.000374844 13.632 0.000374844 14C0.000374844 14.368 0.298371 14.6667 0.667033 14.6667H1.33369V15.3333C1.33369 15.7013 1.63169 16 2.00035 16C2.36901 16 2.66701 15.7013 2.66701 15.3333V14.6667H13.5002V15.5C13.5002 15.946 14.0409 16.166 14.3535 15.8533L15.8535 14.3533C16.0488 14.158 16.0488 13.842 15.8535 13.6466Z" fill="#FFA46B"/>
<path d="M8.66661 2.6665L13.3332 4.66652L8.66661 6.66655L4 4.66652L8.66661 2.6665Z" fill="#FFA46B"/>
<path d="M7.99995 7.83121L4 6.11719V9.99989C4 10.1379 4.08467 10.2619 4.21333 10.3112L7.99995 11.7672V7.83121Z" fill="#FFA46B"/>
<path d="M9.33594 7.83121V11.7672L13.1226 10.3106C13.2512 10.2619 13.3359 10.1379 13.3359 9.99989V6.11719L9.33594 7.83121Z" fill="#FFA46B"/>
</svg>
