<svg width="16" height="16" viewBox="0 0 16 16" fill="none" xmlns="http://www.w3.org/2000/svg">
<path d="M15.7375 6.46402L12.6894 5.3048C12.7246 5.12372 12.7435 4.93983 12.7458 4.75535C12.7458 2.12904 10.621 0 8 0C5.37899 0 3.25424 2.12904 3.25424 4.75535C3.25649 4.93983 3.27537 5.12372 3.31064 5.3048L0.262508 6.46402C0.104839 6.52444 0.000518646 6.67584 0 6.84499V15.4698C3.96388e-05 15.6091 0.0710407 15.7387 0.188275 15.8135C0.30551 15.8883 0.452748 15.898 0.578712 15.8391L4.1421 14.1731C4.17942 14.1551 4.22299 14.1558 4.2598 14.1748L7.81831 15.9573C7.93288 16.0142 8.06739 16.0142 8.18197 15.9573L11.7402 14.1748C11.7771 14.1557 11.8208 14.1551 11.8582 14.1731L15.421 15.8391C15.547 15.8981 15.6943 15.8885 15.8117 15.8137C15.929 15.7389 16 15.6092 16 15.4698V6.84499C15.9994 6.67587 15.8951 6.52451 15.7375 6.46402ZM8 0.271734C10.4701 0.27458 12.4717 2.2803 12.4746 4.75535C12.4746 7.01618 8.69397 12.2764 8 13.2226C7.30603 12.2764 3.52542 7.01618 3.52542 4.75535C3.52826 2.2803 5.52994 0.27458 8 0.271734ZM15.7288 15.4698C15.7288 15.5162 15.7051 15.5594 15.6661 15.5843C15.627 15.6093 15.578 15.6125 15.536 15.5929L11.9729 13.9267C11.8603 13.8737 11.7298 13.8755 11.6187 13.9316L8.06075 15.7141C8.02245 15.733 7.97755 15.733 7.93925 15.7141L4.38129 13.9316C4.27071 13.876 4.14082 13.8742 4.02875 13.9267L0.464 15.5929C0.422021 15.6125 0.372972 15.6093 0.333921 15.5843C0.294869 15.5594 0.271214 15.5162 0.271186 15.4698V6.84499C0.271214 6.78864 0.305954 6.73815 0.358508 6.71809L3.36868 5.57354C4.06319 8.40583 7.72041 13.3041 7.89153 13.5324C7.91713 13.5666 7.95732 13.5867 8 13.5867C8.04268 13.5867 8.08287 13.5666 8.10847 13.5324C8.27986 13.3041 11.9371 8.40583 12.6321 5.57354L15.6423 6.71809C15.6949 6.73815 15.7296 6.78864 15.7296 6.84499L15.7288 15.4698Z" fill="#FFA268"/>
</svg>
