<svg width="16" height="16" viewBox="0 0 16 16" fill="none" xmlns="http://www.w3.org/2000/svg">
<path d="M3.19438 0.801415V1.59813H0.797044C0.355147 1.59989 -0.00167349 1.95938 1.36901e-05 2.4011V15.1955C-0.00254732 15.6378 0.354533 15.9982 0.797044 16H15.1967C15.6417 16.0017 16.0026 15.6402 16 15.1955V2.4011C16.0017 1.95693 15.641 1.59644 15.1967 1.59813H12.7994V0.801415C12.7855 -0.273225 11.1861 -0.261034 11.1975 0.801415V1.59813H4.79469V0.801415C4.79634 -0.267901 3.19635 -0.26635 3.19438 0.801415ZM1.60032 3.19782H3.19438V4.00235C3.19438 5.07265 4.79469 5.05746 4.79469 4.00235V3.19782H11.1975V4.00235C11.1975 5.08223 12.7994 5.05678 12.7994 4.00235V3.19782H14.3997V5.60203H1.60032V3.19782ZM1.60032 7.19547H14.3997V14.3987H1.60032V7.19547ZM3.19438 7.99844C2.19667 7.99844 2.13284 9.59969 3.19438 9.59969H4.79469C5.88439 9.60137 5.90946 8.00171 4.79469 7.99844H3.19438ZM7.19985 7.99844C6.13439 8.00155 6.10935 9.6014 7.19985 9.59969H8.80015C9.87189 9.60137 9.93439 8.00179 8.80015 7.99844H7.19985ZM11.1975 7.99844C10.1469 8.00152 10.1343 9.60137 11.1975 9.59969H12.7994C13.86 9.59969 13.9219 8.00175 12.7994 7.99844H11.1975ZM3.19438 11.1994C2.14928 11.1994 2.14929 12.7991 3.19438 12.7991H4.79469C5.84442 12.8019 5.87981 11.2017 4.79469 11.1994H3.19438ZM7.19985 11.1994C6.09519 11.1994 6.11404 12.7991 7.19985 12.7991H8.80015C9.8267 12.8019 9.8445 11.1994 8.80015 11.1994H7.19985ZM11.1975 11.1994C10.1317 11.2017 10.1316 12.7991 11.1975 12.7991H12.7994C13.8591 12.802 13.8996 11.2018 12.7994 11.1994H11.1975Z" fill="#FFA167"/>
</svg>
