<svg width="14" height="14" viewBox="0 0 14 14" fill="none" xmlns="http://www.w3.org/2000/svg">
<path d="M6.36795 2.26465H2.19288C1.87651 2.26465 1.57309 2.39032 1.34939 2.61401C1.12568 2.8377 1 3.14109 1 3.45744V11.807C1 12.1233 1.12568 12.4267 1.34939 12.6504C1.57309 12.8741 1.87651 12.9997 2.19288 12.9997H10.543C10.8594 12.9997 11.1628 12.8741 11.3865 12.6504C11.6102 12.4267 11.7359 12.1233 11.7359 11.807V7.6322" stroke="black" stroke-width="2" stroke-linecap="round" stroke-linejoin="round"/>
<path d="M10.8407 1.37055C11.078 1.13329 11.3998 1 11.7354 1C12.071 1 12.3928 1.13329 12.6301 1.37055C12.8673 1.60781 13.0006 1.92961 13.0006 2.26514C13.0006 2.60068 12.8673 2.92247 12.6301 3.15973L6.96388 8.82548L4.57812 9.42187L5.17456 7.0363L10.8407 1.37055Z" stroke="black" stroke-width="2" stroke-linecap="round" stroke-linejoin="round"/>
</svg>
