<svg width="16" height="16" viewBox="0 0 16 16" fill="none" xmlns="http://www.w3.org/2000/svg">
<path fill-rule="evenodd" clip-rule="evenodd" d="M1.96257 2.03391V0.980499C1.96257 0.44174 1.52047 0 0.981283 0C0.442093 0 0 0.44174 0 0.980499V2.03394L1.96257 2.03391ZM8.61495 2.56589C8.69891 2.68164 8.67303 2.8435 8.55719 2.9274C8.44135 3.0113 8.27936 2.98544 8.19539 2.86969C8.1579 2.8179 8.10511 2.79017 8.04106 2.79017H7.89966C7.79588 2.79017 7.70997 2.87597 7.70997 2.9797C7.70997 3.08343 7.79585 3.16924 7.89966 3.16924H8.00007C8.3903 3.16924 8.70864 3.48732 8.70864 3.87724C8.70864 4.18761 8.50459 4.46202 8.20931 4.55362V4.61999C8.20931 4.76315 8.09314 4.87923 7.94986 4.87923C7.80658 4.87923 7.69042 4.76315 7.69042 4.61999V4.56442C7.52869 4.52391 7.38259 4.42621 7.28478 4.29105C7.20081 4.17527 7.22669 4.01344 7.34254 3.92954C7.45841 3.84565 7.62037 3.87151 7.70433 3.98726C7.74179 4.03904 7.79462 4.06675 7.85867 4.06675H8.00007C8.10388 4.06675 8.18975 3.98094 8.18975 3.87721C8.18975 3.77348 8.10388 3.68768 8.00007 3.68768H7.89966C7.50942 3.68768 7.19109 3.36963 7.19109 2.97967C7.19109 2.6693 7.39514 2.39489 7.69042 2.30329V2.23692C7.69042 2.09376 7.80658 1.97769 7.94986 1.97769C8.09314 1.97769 8.20931 2.09376 8.20931 2.23692V2.29246C8.37104 2.33303 8.51714 2.4307 8.61495 2.56589ZM8.70754 12.7329V14.7668H4.59551C4.82411 14.5037 4.96291 14.1605 4.96291 13.7863V12.7329H8.70754ZM12.4589 0H2.11405C2.34265 0.263223 2.48146 0.606355 2.48146 0.980499V13.7863C2.48146 14.3251 2.92355 14.7668 3.46274 14.7668C4.0019 14.7668 4.44399 14.3251 4.44399 13.7863V12.4737C4.44399 12.3305 4.56016 12.2144 4.70343 12.2144H8.70751V10.7908H7.44664C7.30336 10.7908 7.18719 10.6747 7.18719 10.5316C7.18719 10.3884 7.30336 10.2723 7.44664 10.2723H8.70751V9.67307H7.44664C7.30336 9.67307 7.18719 9.55699 7.18719 9.41383C7.18719 9.27067 7.30336 9.15459 7.44664 9.15459H8.70751V8.24179H7.44664C7.30336 8.24179 7.18719 8.12571 7.18719 7.98255C7.18719 7.83939 7.30336 7.72331 7.44664 7.72331H8.81076C8.96546 7.4003 9.27906 7.16634 9.6488 7.12402H7.44667C7.30339 7.12402 7.18723 7.00795 7.18723 6.86479C7.18723 6.72162 7.30339 6.60555 7.44667 6.60555H11.4251C11.5684 6.60555 11.6845 6.72162 11.6845 6.86479C11.6845 6.98737 11.5994 7.09006 11.485 7.11706H13.4401V0.980499C13.4401 0.44174 12.998 0 12.4589 0ZM3.95134 5.36215L3.25499 4.56733C3.16097 4.45994 3.17184 4.29672 3.27931 4.20278C3.38675 4.10884 3.55014 4.11969 3.64416 4.22708L3.88651 4.50369V1.66492C3.88651 1.52175 4.00268 1.40568 4.14595 1.40568C4.28923 1.40568 4.4054 1.52175 4.4054 1.66492V4.50369L4.64775 4.22708C4.74177 4.11969 4.90515 4.10884 5.0126 4.20278C5.12004 4.29672 5.13093 4.45998 5.03692 4.56733L4.34232 5.36014C4.24016 5.47891 4.05521 5.48079 3.95134 5.36215ZM6.30589 9.62154L5.24811 10.6884C5.14806 10.789 4.98574 10.7901 4.8843 10.6914L4.29423 10.1167C4.19181 10.0172 4.18954 9.85353 4.28917 9.75119C4.38879 9.64886 4.5526 9.64659 4.65502 9.74614L5.06153 10.1421L5.93904 9.25702C6.03977 9.15579 6.20361 9.15534 6.30489 9.25602C6.4062 9.35667 6.40665 9.52034 6.30589 9.62154ZM6.30589 7.07253L5.24811 8.13939C5.14806 8.23994 4.98574 8.24104 4.8843 8.1424L4.29423 7.56774C4.19181 7.46819 4.18954 7.30452 4.28917 7.20218C4.38879 7.09985 4.5526 7.09758 4.65502 7.19713L5.06153 7.59305L5.93904 6.70801C6.03977 6.60678 6.20361 6.60636 6.30489 6.70701C6.4062 6.80762 6.40665 6.9713 6.30589 7.07253ZM7.94986 5.52272C6.79232 5.52272 5.85394 4.58509 5.85394 3.42847C5.85394 2.27185 6.79232 1.33423 7.94986 1.33423C9.10741 1.33423 10.0458 2.27185 10.0458 3.42847C10.0458 4.58506 9.10737 5.52272 7.94986 5.52272ZM12.6204 2.65416C12.513 2.7481 12.3496 2.73722 12.2556 2.62986L12.0132 2.35325V5.19203C12.0132 5.33519 11.897 5.45126 11.7538 5.45126C11.6105 5.45126 11.4943 5.33519 11.4943 5.19203V2.35325L11.252 2.62986C11.158 2.73725 10.9946 2.7481 10.8871 2.65416C10.7797 2.56022 10.7688 2.39697 10.8628 2.28961L11.5592 1.49479C11.6631 1.37616 11.848 1.37801 11.9501 1.4968L12.6447 2.28961C12.7388 2.39697 12.7279 2.56019 12.6204 2.65416ZM15.4569 7.63556H9.76957C9.47082 7.63556 9.22643 7.87976 9.22643 8.17828V15.4573C9.22643 15.7558 9.47082 16 9.76957 16H15.4569C15.7556 16 16 15.7558 16 15.4573V8.17828C16 7.87976 15.7556 7.63556 15.4569 7.63556ZM11.2713 14.8633C11.2713 14.9882 11.1693 15.0901 11.0443 15.0901H10.4119C10.2869 15.0901 10.1849 14.9883 10.1849 14.8633V14.2315C10.1849 14.1065 10.2868 14.0046 10.4119 14.0046H11.0443C11.1693 14.0046 11.2713 14.1065 11.2713 14.2315V14.8633ZM11.2713 13.1393C11.2713 13.2642 11.1693 13.3661 11.0443 13.3661H10.4119C10.2869 13.3661 10.1849 13.2642 10.1849 13.1393V12.5074C10.1849 12.3825 10.2868 12.2806 10.4119 12.2806H11.0443C11.1693 12.2806 11.2713 12.3824 11.2713 12.5074V13.1393ZM11.2713 11.4153C11.2713 11.5402 11.1693 11.6421 11.0443 11.6421H10.4119C10.2869 11.6421 10.1849 11.5403 10.1849 11.4153V10.7834C10.1849 10.6585 10.2868 10.5566 10.4119 10.5566H11.0443C11.1693 10.5566 11.2713 10.6585 11.2713 10.7834V11.4153ZM13.1564 14.8633C13.1564 14.9882 13.0544 15.0901 12.9294 15.0901H12.297C12.172 15.0901 12.07 14.9883 12.07 14.8633V14.2315C12.07 14.1065 12.172 14.0046 12.297 14.0046H12.9294C13.0544 14.0046 13.1564 14.1065 13.1564 14.2315V14.8633ZM13.1564 13.1393C13.1564 13.2642 13.0544 13.3661 12.9294 13.3661H12.297C12.172 13.3661 12.07 13.2642 12.07 13.1393V12.5074C12.07 12.3825 12.172 12.2806 12.297 12.2806H12.9294C13.0544 12.2806 13.1564 12.3824 13.1564 12.5074V13.1393ZM13.1564 11.4153C13.1564 11.5402 13.0544 11.6421 12.9294 11.6421H12.297C12.172 11.6421 12.07 11.5403 12.07 11.4153V10.7834C12.07 10.6585 12.172 10.5566 12.297 10.5566H12.9294C13.0544 10.5566 13.1564 10.6585 13.1564 10.7834V11.4153ZM15.0415 14.8633C15.0415 14.9882 14.9395 15.0901 14.8145 15.0901H14.1821C14.0571 15.0901 13.9551 14.9883 13.9551 14.8633V12.5074C13.9551 12.3825 14.0571 12.2806 14.1821 12.2806H14.8145C14.9395 12.2806 15.0415 12.3825 15.0415 12.5074V14.8633ZM15.0415 11.4153C15.0415 11.5402 14.9395 11.6421 14.8145 11.6421H14.1821C14.0571 11.6421 13.9551 11.5403 13.9551 11.4153V10.7834C13.9551 10.6585 14.0571 10.5566 14.1821 10.5566H14.8145C14.9395 10.5566 15.0415 10.6585 15.0415 10.7834V11.4153ZM15.0415 9.59562C15.0415 9.72054 14.9395 9.82245 14.8145 9.82245H10.4119C10.2869 9.82245 10.1849 9.72057 10.1849 9.59562V8.82011C10.1849 8.69519 10.2869 8.59328 10.4119 8.59328H14.8145C14.9395 8.59328 15.0415 8.69519 15.0415 8.82011V9.59562Z" fill="#FFA268"/>
</svg>
