<svg width="12" height="10" viewBox="0 0 12 10" fill="none" xmlns="http://www.w3.org/2000/svg">
<path d="M11.5138 5.45445H2.24561C1.9762 5.45445 1.75781 5.25095 1.75781 4.99991V0.454538C1.75781 0.203497 1.9762 0 2.24561 0H11.5138C11.7832 0 12.0016 0.203497 12.0016 0.454538V4.99991C12.0016 5.25095 11.7832 5.45445 11.5138 5.45445Z" fill="#1B1B1B"/>
<path d="M11.5149 0H10.832C11.1014 0 11.3198 0.203497 11.3198 0.454538V4.99991C11.3198 5.25095 11.1014 5.45445 10.832 5.45445H11.5149C11.7844 5.45445 12.0027 5.25095 12.0027 4.99991V0.454538C12.0027 0.203497 11.7844 0 11.5149 0Z" fill="#1B1B1B"/>
<path d="M11.2219 1.15438C10.9691 1.15438 10.7635 0.962783 10.7635 0.72727C10.7635 0.636812 10.6848 0.563477 10.5877 0.563477H3.1732C3.07612 0.563477 2.99742 0.636812 2.99742 0.72727C2.99742 0.962783 2.79181 1.15438 2.53906 1.15438C2.44198 1.15438 2.36328 1.22771 2.36328 1.31817V4.13631C2.36328 4.22677 2.44198 4.30011 2.53906 4.30011C2.79181 4.30011 2.99742 4.4917 2.99742 4.72721C2.99742 4.81767 3.07612 4.89101 3.1732 4.89101H10.5877C10.6848 4.89101 10.7635 4.81767 10.7635 4.72721C10.7635 4.4917 10.9691 4.30011 11.2219 4.30011C11.319 4.30011 11.3977 4.22677 11.3977 4.13631V1.31817C11.3976 1.22769 11.319 1.15438 11.2219 1.15438Z" fill="#E9FFDF"/>
<path d="M6.88145 4.00047C7.63578 4.00047 8.24728 3.43067 8.24728 2.72777C8.24728 2.02488 7.63578 1.45508 6.88145 1.45508C6.12713 1.45508 5.51562 2.02488 5.51562 2.72777C5.51562 3.43067 6.12713 4.00047 6.88145 4.00047Z" fill="#1B1B1B"/>
<path d="M9.66367 3.0915C9.87918 3.0915 10.0539 2.9287 10.0539 2.72788C10.0539 2.52706 9.87918 2.36426 9.66367 2.36426C9.44815 2.36426 9.27344 2.52706 9.27344 2.72788C9.27344 2.9287 9.44815 3.0915 9.66367 3.0915Z" fill="#1B1B1B"/>
<path d="M4.10117 3.0915C4.31668 3.0915 4.4914 2.9287 4.4914 2.72788C4.4914 2.52706 4.31668 2.36426 4.10117 2.36426C3.88565 2.36426 3.71094 2.52706 3.71094 2.72788C3.71094 2.9287 3.88565 3.0915 4.10117 3.0915Z" fill="#1B1B1B"/>
<path d="M4.16857 4.00007L3.99204 3.92377L3.90162 3.90918H3.85359H0.341457C0.152881 3.90918 0 4.05164 0 4.22735V9.6818C0 9.85752 0.152881 9.99998 0.341457 9.99998H4.53653C4.72511 9.99998 4.87799 9.85752 4.87799 9.6818V5.71263L4.41053 4.23688L4.16857 4.00007Z" fill="#918291"/>
<path d="M4.53448 3.90918H3.85156C4.04014 3.90918 4.19302 4.05164 4.19302 4.22735V9.6818C4.19302 9.85752 4.04014 9.99998 3.85156 9.99998H4.53448C4.72305 9.99998 4.87593 9.85752 4.87593 9.6818V4.22735C4.87593 4.05164 4.72305 3.90918 4.53448 3.90918Z" fill="#1B1B1B"/>
<path d="M3.92414 6.56409C3.92414 6.44348 3.81921 6.3457 3.68977 6.3457H2.85156C2.72212 6.3457 2.61719 6.44348 2.61719 6.56409V7.34515C2.61719 7.46577 2.72212 7.56354 2.85156 7.56354H3.68977C3.81921 7.56354 3.92414 7.46577 3.92414 7.34515V6.56409Z" fill="#1B1B1B"/>
<path d="M2.85156 9.10846H3.68977C3.81921 9.10846 3.92414 9.01069 3.92414 8.89007V8.10902C3.92414 7.9884 3.81921 7.89062 3.68977 7.89062H2.85156C2.72212 7.89062 2.61719 7.9884 2.61719 8.10902V8.89007C2.61719 9.01069 2.72212 9.10846 2.85156 9.10846Z" fill="#FE9738"/>
<path d="M2.02961 6.3457H1.1914C1.06196 6.3457 0.957031 6.44348 0.957031 6.56409V7.34515C0.957031 7.46577 1.06196 7.56354 1.1914 7.56354H2.02961C2.15906 7.56354 2.26398 7.46577 2.26398 7.34515V6.56409C2.26398 6.44348 2.15906 6.3457 2.02961 6.3457Z" fill="#1B1B1B"/>
<path d="M0.957031 8.89007C0.957031 9.01069 1.06196 9.10846 1.1914 9.10846H2.02961C2.15906 9.10846 2.26398 9.01069 2.26398 8.89007V8.10902C2.26398 7.9884 2.15906 7.89062 2.02961 7.89062H1.1914C1.06196 7.89062 0.957031 7.9884 0.957031 8.10902V8.89007Z" fill="#1B1B1B"/>
<path d="M0.957031 5.27307V4.81853C0.957031 4.71811 1.04438 4.63672 1.15215 4.63672H3.72738C3.83514 4.63672 3.92249 4.71811 3.92249 4.81853V5.27307C3.92249 5.37348 3.83514 5.45488 3.72738 5.45488H1.15215C1.04438 5.45488 0.957031 5.37348 0.957031 5.27307Z" fill="#1B1B1B"/>
<path d="M9.10871 8.49978H9.43797V6.4089C9.43797 6.28339 9.54717 6.18164 9.68186 6.18164H10.5111C10.6458 6.18164 10.755 6.28339 10.755 6.4089V8.49978H11.0786C11.1521 8.49978 11.2217 8.53778 11.2513 8.60045C11.2791 8.65918 11.2694 8.72435 11.2306 8.77248L10.3345 9.88586C10.2968 9.93268 10.2455 9.96953 10.1855 9.98698C10.063 10.0227 9.93526 9.98123 9.86235 9.89064L8.96571 8.77663C8.94572 8.7518 8.93138 8.72293 8.92725 8.69213C8.91333 8.58825 8.99993 8.49978 9.10871 8.49978Z" fill="#FD8087"/>
<path d="M8.01007 7.6816H7.6808V9.77247C7.6808 9.89798 7.57161 9.99973 7.43689 9.99973H6.60763C6.47294 9.99973 6.36374 9.89798 6.36374 9.77247V7.6816H6.04015C5.96665 7.6816 5.89704 7.6436 5.86744 7.58092C5.83969 7.52219 5.84939 7.45702 5.88816 7.40889L6.7843 6.29551C6.82199 6.24869 6.87332 6.21185 6.93325 6.1944C7.0558 6.15871 7.18351 6.20014 7.25642 6.29073L8.15308 7.40474C8.17307 7.42957 8.18742 7.45844 8.19154 7.48924C8.20542 7.59313 8.11882 7.6816 8.01007 7.6816Z" fill="#1B1B1B"/>
</svg>
