<svg width="14" height="15" viewBox="0 0 14 15" fill="none" xmlns="http://www.w3.org/2000/svg">
<path d="M0.0219408 6.48884C0.023533 6.0649 -0.0282127 5.52132 0.0219408 5.11298C0.0482117 4.90101 0.199469 4.80868 0.399287 4.71375C1.14363 4.36133 1.93335 4.05703 2.69839 3.72542C3.60115 3.33399 4.32718 3.02904 5.06356 2.39443C5.64311 1.89507 6.04832 1.27866 6.55623 0.73053C6.61275 0.669409 6.73375 0.533515 6.81734 0.515959C6.94392 0.4893 7.23529 0.488001 7.33002 0.57578C7.96689 1.26696 8.48833 2.04852 9.26531 2.64412C10.0423 3.23971 10.9594 3.55116 11.8749 3.94715C12.3732 4.16237 12.8684 4.39124 13.3683 4.60972C13.5897 4.7066 13.9415 4.77227 13.9774 5.03106C14.0291 5.40168 13.9758 5.93421 13.9774 6.32434C13.9774 6.33539 13.9774 6.34644 13.9774 6.3575C13.9774 6.45633 13.9774 6.55516 13.9774 6.65399C13.9774 6.6592 13.9774 6.66505 13.9774 6.67025C13.9829 9.17098 13.9742 11.6724 13.9758 14.1737C13.9288 14.3194 13.8349 14.4078 13.6709 14.465C13.6557 14.4702 13.6549 14.493 13.6406 14.4956C13.608 14.5014 13.4392 14.5014 13.4066 14.4956C13.3898 14.4923 13.3906 14.4689 13.3779 14.4637C13.1701 14.3779 13.0642 14.2674 13.0499 14.0678V7.02332V8.375H1.3125H0.989983V14.0593C0.952567 14.2765 0.87057 14.3909 0.622987 14.465C0.604677 14.4709 0.613434 14.4943 0.578406 14.4975C0.543378 14.5008 0.431926 14.5014 0.400082 14.4956C0.385753 14.493 0.384956 14.4696 0.369831 14.4644C0.161256 14.3922 0.0657256 14.2771 0.0219408 14.0931C0.0306978 11.569 0.0147756 9.04484 0.0227365 6.52135C0.0227365 6.5103 0.0227365 6.49924 0.0227365 6.48819L0.0219408 6.48884Z" fill="#1B1B1B"/>
</svg>
