<svg width="14" height="14" viewBox="0 0 14 14" fill="none" xmlns="http://www.w3.org/2000/svg">
<path d="M10.3954 2.66353V2.20126C10.3954 1.739 9.9214 1.36478 9.35255 1.36478H8.59408C8.53088 1.36478 8.43607 1.34277 8.40447 1.29875C8.34126 1.25472 8.34126 1.2107 8.34126 1.16667V1.05661C8.34126 0.484278 7.74081 0 7.01395 0C6.28709 0.0440253 5.71824 0.506291 5.71824 1.07862V1.18868C5.71824 1.23271 5.71824 1.27673 5.65503 1.32076C5.59183 1.36478 5.52862 1.3868 5.46542 1.3868H4.70695C4.32772 1.3868 3.94849 1.5629 3.79047 1.84906C3.72727 1.95913 3.66406 2.0912 3.66406 2.22328V2.68554H10.3322L10.3954 2.66353Z" fill="#1B1B1B"/>
<path d="M13.4312 1.84887C13.2415 1.76082 13.0203 1.7168 12.7991 1.7168H10.8713V1.76082C10.9029 1.82686 10.9029 2.13504 10.9029 2.20108V2.44321H11.9774C12.4831 2.44321 12.8939 2.72938 12.8939 3.08158V12.6351C12.8939 12.9873 12.4831 13.2734 11.9774 13.2734H2.08578C1.58014 13.2734 1.1693 12.9873 1.1693 12.6351V3.08158C1.1693 2.72938 1.58014 2.44321 2.08578 2.44321H3.16027V2.00296C3.16027 1.93692 3.16027 1.84887 3.19187 1.78283V1.73881H1.1693C0.505644 1.73881 0 2.15705 0 2.66334V13.0753C0 13.5816 0.537246 13.9999 1.1693 13.9999H12.8939C13.1467 13.9999 13.3679 13.9338 13.5892 13.8238C13.842 13.6697 14 13.4275 14 13.1634V2.57529C13.9684 2.26711 13.7788 1.98095 13.4312 1.84887Z" fill="#1B1B1B"/>
<path d="M3.1572 2.79541H2.08271C1.86149 2.79541 1.67188 2.92749 1.67188 3.08157V12.6351C1.67188 12.7892 1.86149 12.9212 2.08271 12.9212H11.9744C12.1956 12.9212 12.3852 12.7892 12.3852 12.6351V3.08157C12.3852 2.92749 12.1956 2.79541 11.9744 2.79541H10.8999V2.83944C10.8999 2.92749 10.7735 3.01554 10.647 3.01554H3.41002C3.28361 3.01554 3.1572 2.92749 3.1572 2.83944V2.79541ZM3.59964 4.44636H10.4258C10.5522 4.44636 10.6786 4.53441 10.6786 4.62246C10.6786 4.71051 10.5522 4.79856 10.4258 4.79856H3.59964C3.47323 4.79856 3.34682 4.71051 3.34682 4.62246C3.34682 4.53441 3.47323 4.44636 3.59964 4.44636ZM3.59964 6.6036H10.4258C10.5522 6.6036 10.6786 6.69165 10.6786 6.7797C10.6786 6.86775 10.5522 6.9558 10.4258 6.9558H3.59964C3.47323 6.9558 3.34682 6.86775 3.34682 6.7797C3.34682 6.66964 3.47323 6.6036 3.59964 6.6036ZM3.59964 8.73882H10.4258C10.5522 8.73882 10.6786 8.82688 10.6786 8.91493C10.6786 9.00298 10.5522 9.09103 10.4258 9.09103H3.59964C3.47323 9.09103 3.34682 9.00298 3.34682 8.91493C3.34682 8.82688 3.47323 8.73882 3.59964 8.73882ZM3.59964 10.8961H10.4258C10.5522 10.8961 10.6786 10.9841 10.6786 11.0722C10.6786 11.1602 10.5522 11.2483 10.4258 11.2483H3.59964C3.47323 11.2483 3.34682 11.1602 3.34682 11.0722C3.34682 10.9621 3.47323 10.8961 3.59964 10.8961Z" fill="#1B1B1B"/>
</svg>
