<svg width="17" height="16" viewBox="0 0 17 16" fill="none" xmlns="http://www.w3.org/2000/svg">
<path d="M7.04462 0.547067L6.54688 0.971024H10.4515L9.95407 0.547067C9.53936 0.192674 9.02701 0 8.49934 0C7.97168 0 7.45933 0.192674 7.04462 0.547067Z" fill="#FFA268"/>
<path d="M15.3125 5.10938V6.92083L16.3756 6.0151L15.3125 5.10938Z" fill="#FFA268"/>
<path d="M1.68843 6.92083V5.10938L0.625 6.0151L1.68843 6.92083Z" fill="#FFA268"/>
<path d="M13.254 1.40723H3.74775C3.30821 1.4078 2.88682 1.59773 2.57602 1.93534C2.26522 2.27295 2.09038 2.73068 2.08984 3.20813V7.26335L7.04616 11.484C7.46083 11.8385 7.9732 12.0313 8.50089 12.0313C9.02859 12.0313 9.54095 11.8385 9.95562 11.484L14.9113 7.26335V3.20813C14.9107 2.73081 14.736 2.27318 14.4253 1.93559C14.1147 1.598 13.6935 1.408 13.254 1.40723ZM12.3566 6.6696C12.4379 6.75552 12.4966 6.86343 12.5267 6.98221C12.5568 7.101 12.5572 7.22635 12.5278 7.34535C12.4985 7.46435 12.4404 7.57268 12.3597 7.65919C12.2789 7.7457 12.1784 7.80724 12.0684 7.83748C11.9857 7.86 11.9081 7.90034 11.84 7.95611C11.772 8.01188 11.715 8.08194 11.6724 8.16212C11.6297 8.2423 11.6024 8.33097 11.5919 8.42286C11.5815 8.51475 11.5881 8.60799 11.6115 8.69703C11.6424 8.81558 11.6436 8.94093 11.615 9.06016C11.5865 9.1794 11.5291 9.28819 11.4489 9.37533C11.3688 9.46247 11.2686 9.5248 11.1589 9.55589C11.0491 9.58698 10.9337 9.58571 10.8246 9.55221C10.7426 9.52676 10.6567 9.51948 10.5721 9.53081C10.4875 9.54214 10.4058 9.57183 10.3319 9.61813C10.2581 9.66444 10.1935 9.7264 10.1422 9.80034C10.0908 9.87427 10.0537 9.95868 10.0329 10.0485C10.0051 10.168 9.94845 10.2772 9.86881 10.3649C9.78917 10.4526 9.68944 10.5157 9.57989 10.5476C9.47034 10.5795 9.35494 10.579 9.24559 10.5463C9.13624 10.5137 9.03689 10.4499 8.95779 10.3616C8.8985 10.2951 8.82749 10.2422 8.749 10.206C8.67051 10.1699 8.58614 10.1513 8.50089 10.1513C8.41565 10.1513 8.33127 10.1699 8.25278 10.206C8.17429 10.2422 8.10328 10.2951 8.04399 10.3616C7.96489 10.4499 7.86554 10.5137 7.75619 10.5463C7.64684 10.579 7.53144 10.5795 7.42189 10.5476C7.31234 10.5157 7.21261 10.4526 7.13297 10.3649C7.05333 10.2772 6.99668 10.168 6.96884 10.0485C6.94811 9.95868 6.91096 9.87427 6.8596 9.80034C6.80823 9.7264 6.7437 9.66444 6.66985 9.61813C6.596 9.57183 6.51433 9.54214 6.4297 9.53081C6.34506 9.51948 6.2592 9.52676 6.17721 9.55221C6.06806 9.58571 5.95266 9.58698 5.8429 9.55589C5.73315 9.5248 5.63302 9.46247 5.55283 9.37533C5.47265 9.28819 5.41531 9.1794 5.38673 9.06016C5.35816 8.94093 5.35937 8.81558 5.39026 8.69703C5.41364 8.60799 5.4203 8.51475 5.40985 8.42286C5.3994 8.33097 5.37205 8.2423 5.32943 8.16212C5.2868 8.08194 5.22978 8.01188 5.16174 7.95611C5.0937 7.90034 5.01604 7.86 4.93336 7.83748C4.82341 7.80724 4.72288 7.7457 4.64212 7.65919C4.56137 7.57268 4.50332 7.46435 4.47395 7.34535C4.44459 7.22635 4.44497 7.101 4.47506 6.98221C4.50516 6.86343 4.56387 6.75552 4.64516 6.6696C4.70616 6.605 4.75464 6.52779 4.78774 6.44252C4.82085 6.35725 4.8379 6.26564 4.8379 6.1731C4.8379 6.08056 4.82085 5.98896 4.78774 5.90369C4.75464 5.81842 4.70616 5.74121 4.64516 5.67661C4.56422 5.59065 4.50581 5.48284 4.47593 5.36424C4.44604 5.24565 4.44575 5.12055 4.47509 5.0018C4.50443 4.88305 4.56235 4.77492 4.64288 4.68852C4.72342 4.60212 4.82368 4.54057 4.93336 4.51018C5.01604 4.48766 5.0937 4.44732 5.16174 4.39155C5.22978 4.33578 5.2868 4.26572 5.32943 4.18554C5.37205 4.10536 5.3994 4.01669 5.40985 3.9248C5.4203 3.83291 5.41364 3.73967 5.39026 3.65063C5.35888 3.53204 5.3573 3.40649 5.38571 3.28701C5.41411 3.16754 5.47146 3.05851 5.55178 2.97126C5.6321 2.88401 5.73248 2.82172 5.84246 2.79086C5.95245 2.76001 6.06804 2.76172 6.17721 2.79581C6.25922 2.82094 6.34504 2.82797 6.42959 2.81648C6.51414 2.805 6.59572 2.77523 6.66951 2.72893C6.7433 2.68264 6.8078 2.62075 6.85921 2.54693C6.91062 2.47312 6.9479 2.38886 6.96884 2.29914C6.99625 2.17937 7.0527 2.06976 7.13231 1.98172C7.21193 1.89367 7.3118 1.8304 7.42155 1.79848C7.53129 1.76656 7.64691 1.76716 7.75637 1.80022C7.86584 1.83327 7.96515 1.89757 8.04399 1.98644C8.1034 2.05274 8.17445 2.10543 8.25292 2.14141C8.3314 2.1774 8.41571 2.19593 8.50089 2.19593C8.58607 2.19593 8.67038 2.1774 8.74886 2.14141C8.82733 2.10543 8.89838 2.05274 8.95779 1.98644C9.03663 1.89757 9.13594 1.83327 9.24541 1.80022C9.35487 1.76716 9.47049 1.76656 9.58023 1.79848C9.68998 1.8304 9.78985 1.89367 9.86947 1.98172C9.94908 2.06976 10.0055 2.17937 10.0329 2.29914C10.0539 2.38886 10.0912 2.47312 10.1426 2.54693C10.194 2.62075 10.2585 2.68264 10.3323 2.72893C10.4061 2.77523 10.4876 2.805 10.5722 2.81648C10.6567 2.82797 10.7426 2.82094 10.8246 2.79581C10.9337 2.76172 11.0493 2.76001 11.1593 2.79086C11.2693 2.82172 11.3697 2.88401 11.45 2.97126C11.5303 3.05851 11.5877 3.16754 11.6161 3.28701C11.6445 3.40649 11.6429 3.53204 11.6115 3.65063C11.5881 3.73967 11.5815 3.83291 11.5919 3.9248C11.6024 4.01669 11.6297 4.10536 11.6724 4.18554C11.715 4.26572 11.772 4.33578 11.84 4.39155C11.9081 4.44732 11.9857 4.48766 12.0684 4.51018C12.1784 4.54042 12.2789 4.60196 12.3597 4.68847C12.4404 4.77498 12.4985 4.88331 12.5278 5.00231C12.5572 5.12131 12.5568 5.24666 12.5267 5.36544C12.4966 5.48423 12.4379 5.59214 12.3566 5.67806C12.2955 5.74246 12.247 5.81952 12.2138 5.90468C12.1806 5.98984 12.1636 6.08136 12.1636 6.17383C12.1636 6.2663 12.1806 6.35782 12.2138 6.44298C12.247 6.52814 12.2955 6.6052 12.3566 6.6696Z" fill="#FFA268"/>
<path d="M6.79724 11.8273L0.5 6.46387V14.1776C0.500443 14.6608 0.677338 15.124 0.991864 15.4657C1.30639 15.8073 1.73285 15.9995 2.17766 16H14.8223C15.2671 15.9994 15.6935 15.8072 16.008 15.4656C16.3225 15.124 16.4995 14.6608 16.5 14.1776V6.46387L10.2024 11.8273C9.71711 12.2423 9.11744 12.4679 8.49983 12.4679C7.88222 12.4679 7.28255 12.2423 6.79724 11.8273ZM6.66536 14.6408C6.65474 14.8207 6.58157 14.9894 6.46067 15.1128C6.33978 15.2363 6.18021 15.3051 6.01431 15.3055C6.00059 15.3055 5.98653 15.3055 5.9728 15.3055C5.86339 15.2983 5.75741 15.2612 5.66472 15.1977C5.57203 15.1341 5.49562 15.0461 5.44259 14.9419C5.41641 14.8913 5.40979 14.8315 5.42419 14.7756C5.4386 14.7198 5.47285 14.6724 5.51941 14.6439C5.56598 14.6155 5.62104 14.6083 5.67248 14.624C5.72392 14.6396 5.76753 14.6768 5.79372 14.7274C5.81415 14.7676 5.8436 14.8016 5.87934 14.8262C5.91507 14.8508 5.95595 14.8652 5.99817 14.8681C6.04039 14.8709 6.0826 14.8622 6.12088 14.8426C6.15916 14.8231 6.19228 14.7933 6.21716 14.7561C6.24204 14.719 6.25789 14.6756 6.26323 14.63C6.26857 14.5844 6.26323 14.5381 6.24771 14.4954C6.23219 14.4526 6.20699 14.4148 6.17444 14.3854C6.14189 14.3561 6.10304 14.3361 6.06151 14.3274C6.05036 14.3281 6.03918 14.3281 6.02803 14.3274C6.01476 14.3261 6.00157 14.3239 5.98854 14.3209C5.88485 14.3065 5.78585 14.2653 5.69988 14.2007C5.6139 14.1361 5.54345 14.05 5.49446 13.9497C5.44546 13.8494 5.41935 13.7378 5.41832 13.6242C5.41728 13.5107 5.44136 13.3985 5.48851 13.2972C5.53567 13.1959 5.60454 13.1083 5.68932 13.0419C5.7741 12.9755 5.87232 12.9321 5.97573 12.9155C6.07914 12.8989 6.18471 12.9094 6.28357 12.9463C6.38243 12.9832 6.47169 13.0454 6.54385 13.1275C6.58056 13.1695 6.60042 13.2256 6.59907 13.2834C6.59772 13.3413 6.57527 13.3962 6.53665 13.4361C6.49804 13.4759 6.44642 13.4975 6.39315 13.496C6.33989 13.4946 6.28934 13.4702 6.25264 13.4282C6.22486 13.3966 6.19048 13.3726 6.1524 13.3585C6.11432 13.3443 6.07365 13.3402 6.03383 13.3467C5.99401 13.3531 5.9562 13.3699 5.9236 13.3956C5.891 13.4212 5.86456 13.455 5.8465 13.4941C5.82845 13.5332 5.81932 13.5764 5.81988 13.6202C5.82044 13.6639 5.83068 13.7068 5.84972 13.7454C5.86877 13.7839 5.89607 13.8169 5.92931 13.8416C5.96256 13.8662 6.00078 13.8819 6.04075 13.8871L6.07958 13.8893H6.09063C6.25684 13.9107 6.40914 14.0006 6.51609 14.1405C6.62304 14.2803 6.67647 14.4594 6.66536 14.6408ZM10.329 13.1901C10.3294 13.1155 10.3569 13.0442 10.4056 12.9916C10.4543 12.939 10.5201 12.9095 10.5887 12.9094H11.3817C11.4349 12.9094 11.486 12.9324 11.5237 12.9733C11.5614 13.0142 11.5825 13.0697 11.5825 13.1275C11.5825 13.1854 11.5614 13.2409 11.5237 13.2818C11.486 13.3227 11.4349 13.3457 11.3817 13.3457H10.7306V13.8911H11.3817C11.4349 13.8911 11.486 13.9141 11.5237 13.955C11.5614 13.9959 11.5825 14.0514 11.5825 14.1093C11.5825 14.1671 11.5614 14.2226 11.5237 14.2635C11.486 14.3044 11.4349 14.3274 11.3817 14.3274H10.7306V14.8728H11.3817C11.4349 14.8728 11.486 14.8958 11.5237 14.9367C11.5614 14.9776 11.5825 15.0331 11.5825 15.091C11.5825 15.1488 11.5614 15.2043 11.5237 15.2452C11.486 15.2862 11.4349 15.3091 11.3817 15.3091H10.5887C10.5198 15.309 10.4538 15.2793 10.4051 15.2264C10.3564 15.1735 10.329 15.1018 10.329 15.027V13.1901ZM8.89966 13.1275C8.89966 13.0697 8.92082 13.0142 8.95849 12.9733C8.99615 12.9324 9.04724 12.9094 9.1005 12.9094C9.15377 12.9094 9.20485 12.9324 9.24252 12.9733C9.28018 13.0142 9.30134 13.0697 9.30134 13.1275V14.8692H9.78669C9.83996 14.8692 9.89104 14.8922 9.92871 14.9331C9.96637 14.974 9.98753 15.0295 9.98753 15.0873C9.98753 15.1452 9.96637 15.2007 9.92871 15.2416C9.89104 15.2825 9.83996 15.3055 9.78669 15.3055H9.2364C9.14703 15.3054 9.06135 15.2668 8.99815 15.1982C8.93496 15.1295 8.89942 15.0364 8.89933 14.9394L8.89966 13.1275ZM8.4692 15.2939C8.44722 15.3026 8.42399 15.307 8.40059 15.307C8.35935 15.307 8.31911 15.2932 8.28534 15.2675C8.25156 15.2418 8.22589 15.2054 8.2118 15.1633L8.02301 14.5998H7.49247L7.27155 15.1732C7.25105 15.2253 7.21267 15.2667 7.16453 15.2887C7.11639 15.3106 7.06228 15.3113 7.01366 15.2907C6.96505 15.27 6.92575 15.2296 6.90409 15.178C6.88244 15.1264 6.88013 15.0677 6.89766 15.0143L7.55473 13.053C7.56887 13.011 7.59454 12.9748 7.62828 12.9491C7.66201 12.9235 7.70218 12.9098 7.74335 12.9098C7.78451 12.9098 7.82468 12.9235 7.85842 12.9491C7.89215 12.9748 7.91783 13.011 7.93197 13.053L8.58937 15.0143C8.60717 15.0685 8.60452 15.1281 8.58202 15.1802C8.55951 15.2323 8.51896 15.2726 8.4692 15.2924V15.2939Z" fill="#FFA268"/>
<path d="M7.60938 14.1614H7.87615L7.74293 13.7637L7.60938 14.1614Z" fill="#FFA268"/>
<path d="M8.49979 9.59705C9.12324 9.59705 9.73268 9.39623 10.2511 9.01998C10.7694 8.64373 11.1734 8.10895 11.412 7.48327C11.6506 6.85759 11.713 6.16912 11.5913 5.50491C11.4697 4.84071 11.1694 4.23061 10.7286 3.75177C10.2877 3.27292 9.72601 2.94685 9.11454 2.81477C8.50306 2.6827 7.86926 2.75056 7.29329 3.00977C6.71732 3.26898 6.22504 3.7079 5.87872 4.27102C5.5324 4.83415 5.34759 5.49618 5.34766 6.1734C5.34775 7.08144 5.67988 7.95226 6.27101 8.59431C6.86214 9.23636 7.66385 9.59705 8.49979 9.59705ZM9.59301 5.69781C9.59301 5.63995 9.61417 5.58447 9.65184 5.54355C9.6895 5.50264 9.74058 5.47965 9.79385 5.47965C9.84711 5.47965 9.8982 5.50264 9.93586 5.54355C9.97353 5.58447 9.99469 5.63995 9.99469 5.69781V5.8847C9.99469 5.94256 9.97353 5.99805 9.93586 6.03897C9.8982 6.07988 9.84711 6.10286 9.79385 6.10286C9.74058 6.10286 9.6895 6.07988 9.65184 6.03897C9.61417 5.99805 9.59301 5.94256 9.59301 5.8847V5.69781ZM8.12021 6.27666C8.16686 6.24875 8.22181 6.24211 8.27297 6.2582C8.32413 6.27429 8.36731 6.3118 8.39301 6.36247C8.40341 6.38302 8.41869 6.40016 8.43727 6.4121C8.45585 6.42403 8.47703 6.43033 8.49862 6.43033C8.5202 6.43033 8.54139 6.42403 8.55997 6.4121C8.57855 6.40016 8.59383 6.38302 8.60422 6.36247C8.62993 6.31175 8.67312 6.27419 8.72432 6.25807C8.77551 6.24194 8.8305 6.24856 8.8772 6.27648C8.92389 6.3044 8.95847 6.35132 8.97331 6.40693C8.98816 6.46254 8.98206 6.52227 8.95636 6.573C8.91131 6.66201 8.84507 6.73624 8.76458 6.78795C8.68409 6.83965 8.5923 6.86693 8.49879 6.86693C8.40527 6.86693 8.31348 6.83965 8.23299 6.78795C8.1525 6.73624 8.08627 6.66201 8.04121 6.573C8.02853 6.54784 8.02053 6.52021 8.01769 6.4917C8.01485 6.46318 8.01721 6.43433 8.02464 6.40681C8.03207 6.37929 8.04442 6.35362 8.061 6.33129C8.07757 6.30896 8.09803 6.2904 8.12121 6.27666H8.12021ZM7.00389 5.69781C7.00389 5.63995 7.02505 5.58447 7.06271 5.54355C7.10038 5.50264 7.15146 5.47965 7.20473 5.47965C7.25799 5.47965 7.30908 5.50264 7.34674 5.54355C7.3844 5.58447 7.40556 5.63995 7.40556 5.69781V5.8847C7.40556 5.94256 7.3844 5.99805 7.34674 6.03897C7.30908 6.07988 7.25799 6.10286 7.20473 6.10286C7.15146 6.10286 7.10038 6.07988 7.06271 6.03897C7.02505 5.99805 7.00389 5.94256 7.00389 5.8847V5.69781Z" fill="#FFA268"/>
</svg>
