<svg width="14" height="18" viewBox="0 0 14 18" fill="none" xmlns="http://www.w3.org/2000/svg">
<path d="M7 18C6.83171 18 6.66796 17.9579 6.53333 17.8801L3.42222 16.0809C3.32563 16.025 3.24722 15.9526 3.19322 15.8693C3.13922 15.786 3.11111 15.6942 3.11111 15.6011V9.8856C1.86243 9.24228 0.915168 8.30636 0.409223 7.21607C-0.0967222 6.12578 -0.134524 4.93893 0.3014 3.83081C0.737324 2.72268 1.62386 1.75204 2.83008 1.06222C4.0363 0.372408 5.49824 0 7 0C8.50176 0 9.9637 0.372408 11.1699 1.06222C12.3761 1.75204 13.2627 2.72268 13.6986 3.83081C14.1345 4.93893 14.0967 6.12578 13.5908 7.21607C13.0848 8.30636 12.1376 9.24228 10.8889 9.8856V10.8032C10.8895 10.8821 10.8699 10.9604 10.8312 11.0334C10.7924 11.1065 10.7354 11.173 10.6633 11.229L9.65222 12.0027L10.6633 12.7763C10.7362 12.8321 10.7941 12.8984 10.8336 12.9715C10.8731 13.0446 10.8934 13.123 10.8934 13.2021C10.8934 13.2813 10.8731 13.3597 10.8336 13.4328C10.7941 13.5059 10.7362 13.5722 10.6633 13.6279L9.65222 14.4016L10.6633 15.1753C10.7423 15.2362 10.8033 15.3095 10.8422 15.3902C10.8811 15.4709 10.8971 15.5572 10.8889 15.643C10.8809 15.729 10.8489 15.8125 10.7952 15.8881C10.7415 15.9636 10.6674 16.0294 10.5778 16.0809L7.46667 17.8801C7.33204 17.9579 7.16829 18 7 18ZM4.66667 15.3012L7 16.6506L8.92889 15.5351L8.00333 14.8274C7.93043 14.7717 7.87257 14.7053 7.83308 14.6322C7.7936 14.5592 7.77327 14.4808 7.77327 14.4016C7.77327 14.3224 7.7936 14.244 7.83308 14.171C7.87257 14.0979 7.93043 14.0315 8.00333 13.9758L9.01444 13.2021L8.00333 12.4285C7.93043 12.3727 7.87257 12.3064 7.83308 12.2333C7.7936 12.1602 7.77327 12.0818 7.77327 12.0027C7.77327 11.9235 7.7936 11.8451 7.83308 11.772C7.87257 11.6989 7.93043 11.6326 8.00333 11.5769L9.33333 10.5573V9.55575C9.33415 9.45109 9.37048 9.34841 9.4387 9.25793C9.50693 9.16745 9.60467 9.09231 9.72222 9.03998C10.7602 8.5779 11.5714 7.86465 12.03 7.01084C12.4887 6.15703 12.5691 5.21039 12.2589 4.31773C11.9487 3.42506 11.2652 2.63627 10.3144 2.07368C9.36353 1.51109 8.19851 1.20615 7 1.20615C5.80149 1.20615 4.63647 1.51109 3.68563 2.07368C2.73479 2.63627 2.05127 3.42506 1.74107 4.31773C1.43087 5.21039 1.51134 6.15703 1.96999 7.01084C2.42864 7.86465 3.23984 8.5779 4.27778 9.03998C4.39533 9.09231 4.49307 9.16745 4.5613 9.25793C4.62952 9.34841 4.66585 9.45109 4.66667 9.55575V15.3012Z" fill="#FFA268"/>
<path d="M7.00087 5.4048C6.69321 5.4048 6.39246 5.33445 6.13665 5.20265C5.88084 5.07085 5.68146 4.88352 5.56372 4.66434C5.44599 4.44517 5.41518 4.204 5.4752 3.97132C5.53522 3.73865 5.68338 3.52492 5.90093 3.35718C6.11847 3.18943 6.39565 3.07519 6.69739 3.02891C6.99914 2.98263 7.31191 3.00638 7.59615 3.09716C7.8804 3.18795 8.12334 3.34169 8.29427 3.53894C8.46519 3.73619 8.55642 3.9681 8.55642 4.20533C8.55642 4.52345 8.39254 4.82854 8.10081 5.05348C7.80909 5.27842 7.41343 5.4048 7.00087 5.4048Z" fill="#FFA268"/>
</svg>
