<svg width="14" height="16" viewBox="0 0 14 16" fill="none" xmlns="http://www.w3.org/2000/svg">
<path fill-rule="evenodd" clip-rule="evenodd" d="M2.33333 4.8V6.4C1.04467 6.4 0 7.47448 0 8.8V13.6C0 14.9255 1.04467 16 2.33333 16H11.6667C12.9554 16 14 14.9255 14 13.6V8.8C14 7.47448 12.9554 6.4 11.6667 6.4V4.8C11.6667 2.14903 9.57732 0 7 0C4.42267 0 2.33333 2.14903 2.33333 4.8ZM10.1111 4.8V6.4H3.88889V4.8C3.88889 3.03269 5.28178 1.6 7 1.6C8.71819 1.6 10.1111 3.03269 10.1111 4.8ZM3.88889 12C4.31844 12 4.66667 11.6418 4.66667 11.2C4.66667 10.7582 4.31844 10.4 3.88889 10.4C3.45934 10.4 3.11111 10.7582 3.11111 11.2C3.11111 11.6418 3.45934 12 3.88889 12ZM7.77778 11.2C7.77778 11.6418 7.42957 12 7 12C6.57043 12 6.22222 11.6418 6.22222 11.2C6.22222 10.7582 6.57043 10.4 7 10.4C7.42957 10.4 7.77778 10.7582 7.77778 11.2ZM10.1111 12C10.5407 12 10.8889 11.6418 10.8889 11.2C10.8889 10.7582 10.5407 10.4 10.1111 10.4C9.68154 10.4 9.33333 10.7582 9.33333 11.2C9.33333 11.6418 9.68154 12 10.1111 12Z" fill="#FFA166"/>
</svg>
