<svg width="14" height="12" viewBox="0 0 14 12" fill="none" xmlns="http://www.w3.org/2000/svg">
<path d="M7 9C6.54801 9 6.09602 8.83056 5.71047 8.48719L0 3.4125V10.5C0 11.3281 0.587617 12 1.3125 12H12.6875C13.4124 12 14 11.3284 14 10.5V3.4125L8.29063 8.49063C7.90508 8.83125 7.45117 9 7 9ZM0.44543 2.54063L6.24777 7.7C6.69047 8.09375 7.31062 8.09375 7.75332 7.7L13.5557 2.54063C13.8113 2.29063 14 1.90625 14 1.5C14 0.671562 13.4121 0 12.6875 0H1.3125C0.587617 0 0 0.671562 0 1.5C0 1.90625 0.164336 2.29063 0.44543 2.54063Z" fill="#FFA167"/>
</svg>
