<svg width="14" height="15" viewBox="0 0 14 15" fill="none" xmlns="http://www.w3.org/2000/svg">
<path d="M7 4.875C6.517 4.875 6.125 5.267 6.125 5.75V8.025L5.509 8.64056C5.29025 8.85931 5.25 9.06538 5.25 9.25C5.25 9.733 5.642 10.125 6.125 10.125C6.37787 10.125 6.58 10.0196 6.734 9.866L7.64006 8.96037C7.77 8.83044 7.875 8.62788 7.875 8.375V5.75C7.875 5.267 7.483 4.875 7 4.875ZM7 2.25C3.61725 2.25 0.875 4.99225 0.875 8.375C0.875 9.75356 1.33612 11.0219 2.10481 12.0456L1.12919 13.0213C0.959438 13.1901 0.875 13.3927 0.875 13.625C0.875 14.1447 1.3195 14.5 1.75 14.5C1.97575 14.5 2.18138 14.4186 2.35375 14.2463L3.32938 13.2706C4.35313 14.0389 5.62144 14.5 7 14.5C8.37856 14.5 9.64687 14.0389 10.6706 13.2702L11.6463 14.2458C11.8186 14.4186 12.0243 14.5 12.25 14.5C12.6805 14.5 13.125 14.1443 13.125 13.625C13.125 13.3927 13.0406 13.1901 12.8713 13.0213L11.8956 12.0456C12.6639 11.0219 13.125 9.75356 13.125 8.375C13.125 4.99225 10.3827 2.25 7 2.25ZM7 12.75C4.58413 12.75 2.625 10.7909 2.625 8.375C2.625 5.95913 4.58413 4 7 4C9.41587 4 11.375 5.95913 11.375 8.375C11.375 10.7909 9.41587 12.75 7 12.75ZM11.375 0.5C10.4431 0.5 9.62675 0.986938 9.16081 1.71888C10.8815 2.27669 12.3104 3.47981 13.1591 5.0465C13.6754 4.56744 14 3.8845 14 3.125C14 1.67556 12.8244 0.5 11.375 0.5ZM4.83919 1.71888C4.37325 0.986938 3.55687 0.5 2.625 0.5C1.17556 0.5 0 1.67556 0 3.125C0 3.8845 0.324625 4.56744 0.840875 5.04694C1.68919 3.48025 3.1185 2.27713 4.83919 1.71888Z" fill="#1B1B1B"/>
</svg>
