<svg width="16" height="16" viewBox="0 0 16 16" fill="none" xmlns="http://www.w3.org/2000/svg">
<path d="M1 6.76454C1 5.92098 1.41078 5.13026 2.10098 4.64526L6.51077 1.54648C7.40431 0.918589 8.59569 0.918589 9.48923 1.54648L13.899 4.64526C14.5892 5.13026 15 5.92098 15 6.76454V12.7732C15 13.7269 14.2269 14.5 13.2732 14.5H9.64118C9.16434 14.5 8.77778 14.1134 8.77778 13.6366V11.5796C8.77778 11.1028 8.39122 10.7162 7.91438 10.7162H5.94674C5.46989 10.7162 5.08333 11.1028 5.08333 11.5796V13.6366C5.08333 14.1134 4.69678 14.5 4.21993 14.5H2.7268C1.77312 14.5 1 13.7269 1 12.7732V6.76454Z" fill="#FFFEF3" stroke="#1B1B1B" stroke-width="1.5"/>
</svg>
