<svg width="16" height="15" viewBox="0 0 16 15" fill="none" xmlns="http://www.w3.org/2000/svg">
<path d="M1 12.75V4.4375C1 3.39321 1.41484 2.39169 2.15327 1.65327C2.89169 0.914843 3.89321 0.5 4.9375 0.5H11.0625C11.5796 0.5 12.0916 0.601846 12.5693 0.799724C13.047 0.997602 13.4811 1.28764 13.8467 1.65327C14.2124 2.0189 14.5024 2.45296 14.7003 2.93068C14.8982 3.4084 15 3.92042 15 4.4375V10.5625C15 11.0796 14.8982 11.5916 14.7003 12.0693C14.5024 12.547 14.2124 12.9811 13.8467 13.3467C13.4811 13.7124 13.047 14.0024 12.5693 14.2003C12.0916 14.3982 11.5796 14.5 11.0625 14.5H2.75C2.28587 14.5 1.84075 14.3156 1.51256 13.9874C1.18437 13.6592 1 13.2141 1 12.75Z" stroke="#1B1B1B" stroke-linecap="round" stroke-linejoin="round"/>
<path d="M4.5 7.5H7.5625C8.02663 7.5 8.47175 7.68437 8.79994 8.01256C9.12813 8.34075 9.3125 8.78587 9.3125 9.25C9.3125 9.71413 9.12813 10.1592 8.79994 10.4874C8.47175 10.8156 8.02663 11 7.5625 11H4.5V4.875C4.5 4.64294 4.59219 4.42038 4.75628 4.25628C4.92038 4.09219 5.14294 4 5.375 4H6.6875C7.15163 4 7.59675 4.18437 7.92494 4.51256C8.25313 4.84075 8.4375 5.28587 8.4375 5.75C8.4375 6.21413 8.25313 6.65925 7.92494 6.98744C7.59675 7.31563 7.15163 7.5 6.6875 7.5H5.375" stroke="#1B1B1B" stroke-linecap="round" stroke-linejoin="round"/>
<path d="M11.5 11H11.5088" stroke="#1B1B1B" stroke-linecap="round" stroke-linejoin="round"/>
</svg>
