<svg width="14" height="15" viewBox="0 0 14 15" fill="none" xmlns="http://www.w3.org/2000/svg">
<path d="M2.79508 1.20124V1.89837H0.697413C0.310754 1.89991 -0.0014643 2.21446 1.19788e-05 2.60096V13.796C-0.0022289 14.1831 0.310217 14.4985 0.697413 14.5H13.2971C13.6865 14.5015 14.0022 14.1852 14 13.796V2.60096C14.0015 2.21232 13.6859 1.89689 13.2971 1.89837H11.1994V1.20124C11.1873 0.260928 9.7878 0.271595 9.79781 1.20124V1.89837H4.19536V1.20124C4.1968 0.265587 2.7968 0.266944 2.79508 1.20124ZM1.40028 3.29809H2.79508V4.00206C2.79508 4.93857 4.19536 4.92528 4.19536 4.00206V3.29809H9.79781V4.00206C9.79781 4.94695 11.1994 4.92468 11.1994 4.00206V3.29809H12.5997V5.40178H1.40028V3.29809ZM1.40028 6.79604H12.5997V13.0989H1.40028V6.79604ZM2.79508 7.49864C1.92209 7.49864 1.86624 8.89973 2.79508 8.89973H4.19536C5.14884 8.9012 5.17078 7.5015 4.19536 7.49864H2.79508ZM6.29986 7.49864C5.36759 7.50136 5.34568 8.90123 6.29986 8.89973H7.70014C8.6379 8.9012 8.69259 7.50157 7.70014 7.49864H6.29986ZM9.79781 7.49864C8.8785 7.50133 8.86756 8.9012 9.79781 8.89973H11.1994C12.1275 8.89973 12.1817 7.50154 11.1994 7.49864H9.79781ZM2.79508 10.2995C1.88062 10.2995 1.88063 11.6992 2.79508 11.6992H4.19536C5.11387 11.7017 5.14483 10.3015 4.19536 10.2995H2.79508ZM6.29986 10.2995C5.3333 10.2995 5.34979 11.6992 6.29986 11.6992H7.70014C8.59836 11.7017 8.61394 10.2995 7.70014 10.2995H6.29986ZM9.79781 10.2995C8.86526 10.3015 8.86516 11.6992 9.79781 11.6992H11.1994C12.1267 11.7018 12.1621 10.3015 11.1994 10.2995H9.79781Z" fill="#1B1B1B"/>
</svg>
