<svg width="14" height="14" viewBox="0 0 14 14" fill="none" xmlns="http://www.w3.org/2000/svg">
<g clip-path="url(#clip0_1065_8863)">
<path d="M7 0.75C10.452 0.75 13.25 3.54803 13.25 7C13.25 10.4516 10.4519 13.25 7 13.25C3.54806 13.25 0.75 10.4516 0.75 7C0.75 3.54803 3.54803 0.75 7 0.75Z" fill="#FFFEF3" stroke="#1B1B1B" stroke-width="1.5"/>
<path d="M6.56131 11.041V10.0828C5.93875 10.0627 5.31619 9.8851 4.96094 9.64797L5.22738 8.71916C5.61281 8.94666 6.16625 9.15404 6.76825 9.15404C7.39081 9.15404 7.81606 8.84779 7.81606 8.37354C7.81606 7.9286 7.47 7.64247 6.73894 7.3756C5.70162 7.00066 5.02963 6.52641 5.02963 5.60722C5.02963 4.7576 5.62244 4.10529 6.62038 3.92766V2.95947H7.43106V3.87822C8.05362 3.89791 8.47844 4.04622 8.79431 4.20416L8.52787 5.11329C8.29075 5.00435 7.85588 4.77685 7.18431 4.77685C6.49263 4.77685 6.24544 5.13254 6.24544 5.46854C6.24544 5.87366 6.60069 6.10072 7.44069 6.43716C8.54712 6.85191 9.04106 7.38566 9.04106 8.26504C9.04106 9.1046 8.45831 9.84572 7.37156 10.0238V11.0414L6.56131 11.041Z" fill="#1B1B1B"/>
</g>
<defs>
<clipPath id="clip0_1065_8863">
<rect width="14" height="14" fill="white"/>
</clipPath>
</defs>
</svg>
