<svg width="14" height="15" viewBox="0 0 14 15" fill="none" xmlns="http://www.w3.org/2000/svg">
<path d="M1.5752 10.0879H6.125C6.54515 10.0879 6.9502 10.4578 6.9502 10.9951V12.0762L6.94922 12.0879C6.86945 12.6444 6.61056 13.0206 6.16992 13.2842C5.69117 13.5705 4.94974 13.75 3.89648 13.75C2.8484 13.75 2.09783 13.573 1.60059 13.2852C1.14105 13.019 0.861454 12.6392 0.751953 12.0918L0.75 12.0615V10.9951C0.75 10.4578 1.15503 10.0879 1.5752 10.0879ZM3.84961 4.19629C4.75296 4.19629 5.54967 4.97777 5.5498 6.02344C5.5498 7.06924 4.75304 7.85156 3.84961 7.85156C2.94634 7.85134 2.15039 7.06909 2.15039 6.02344C2.15052 4.97792 2.94642 4.19651 3.84961 4.19629ZM9.14941 5.71387L8.48633 5.63672C8.1024 5.5919 7.75 5.23248 7.75 4.73438V2.15723C7.75 1.61988 8.15504 1.25 8.5752 1.25H12.4248C12.845 1.25 13.25 1.61988 13.25 2.15723V4.73438C13.25 5.27172 12.845 5.6416 12.4248 5.6416H11.0469L10.832 5.83789L9.14941 7.37402V5.71387Z" fill="#FFFEF3" stroke="#1B1B1B" stroke-width="1.5"/>
</svg>
