<svg width="14" height="15" viewBox="0 0 14 15" fill="none" xmlns="http://www.w3.org/2000/svg">
<path d="M13.3705 8.9L12.6211 8.49167C11.8091 8.025 11.8091 6.91667 12.6211 6.45L13.3705 6.04167C13.9951 5.69167 14.1825 4.99167 13.8077 4.46667L13.1832 3.475C12.8084 2.89167 12.059 2.71667 11.4968 3.06667L10.7474 3.475C9.93544 3.94167 8.87369 3.35833 8.87369 2.48333V1.66667C8.87369 1.025 8.31158 0.5 7.62456 0.5H6.37544C5.68842 0.5 5.12631 1.025 5.12631 1.66667V2.425C5.12631 3.3 4.06456 3.88333 3.25263 3.41667L2.50315 3.06667C1.87859 2.71667 1.12912 2.95 0.816835 3.475L0.192273 4.46667C-0.120008 5.05 0.0673605 5.75 0.629466 6.1L1.37894 6.50833C2.19087 6.91667 2.19087 8.08333 1.37894 8.49167L0.629466 8.9C0.00490427 9.25 -0.182464 9.95 0.192273 10.475L0.816835 11.4667C1.19157 12.05 1.94105 12.225 2.50315 11.875L3.25263 11.525C4.06456 11.0583 5.12631 11.6417 5.12631 12.5167V13.3333C5.12631 13.975 5.68842 14.5 6.37544 14.5H7.62456C8.31158 14.5 8.87369 13.975 8.87369 13.3333V12.575C8.87369 11.7 9.93544 11.1167 10.7474 11.5833L11.4968 11.9917C12.1214 12.3417 12.8709 12.1083 13.1832 11.5833L13.8077 10.5917C14.12 9.95 13.9326 9.25 13.3705 8.9ZM7 9.83333C5.62596 9.83333 4.50175 8.78333 4.50175 7.5C4.50175 6.21667 5.62596 5.16667 7 5.16667C8.37404 5.16667 9.49825 6.21667 9.49825 7.5C9.49825 8.78333 8.37404 9.83333 7 9.83333Z" fill="#1B1B1B"/>
</svg>
