<svg width="20" height="16" viewBox="0 0 20 16" fill="none" xmlns="http://www.w3.org/2000/svg">
<path d="M19.2537 1.92115H0.746268C0.548346 1.92115 0.35853 1.82869 0.218577 1.66411C0.0786245 1.49954 0 1.27633 0 1.04358C0 0.810837 0.0786245 0.587624 0.218577 0.423048C0.35853 0.258473 0.548346 0.166016 0.746268 0.166016H19.2537C19.4517 0.166016 19.6415 0.258473 19.7814 0.423048C19.9214 0.587624 20 0.810837 20 1.04358C20 1.27633 19.9214 1.49954 19.7814 1.66411C19.6415 1.82869 19.4517 1.92115 19.2537 1.92115Z" fill="black"/>
<path d="M19.2537 8.54419H0.746268C0.548346 8.54419 0.35853 8.45174 0.218577 8.28716C0.0786245 8.12259 0 7.89937 0 7.66663C0 7.43388 0.0786245 7.21067 0.218577 7.0461C0.35853 6.88152 0.548346 6.78906 0.746268 6.78906H19.2537C19.4517 6.78906 19.6415 6.88152 19.7814 7.0461C19.9214 7.21067 20 7.43388 20 7.66663C20 7.89937 19.9214 8.12259 19.7814 8.28716C19.6415 8.45174 19.4517 8.54419 19.2537 8.54419Z" fill="black"/>
<path d="M19.2537 15.1663H0.746268C0.548346 15.1663 0.35853 15.0738 0.218577 14.9092C0.0786245 14.7447 0 14.5214 0 14.2887C0 14.056 0.0786245 13.8327 0.218577 13.6682C0.35853 13.5036 0.548346 13.4111 0.746268 13.4111H19.2537C19.4517 13.4111 19.6415 13.5036 19.7814 13.6682C19.9214 13.8327 20 14.056 20 14.2887C20 14.5214 19.9214 14.7447 19.7814 14.9092C19.6415 15.0738 19.4517 15.1663 19.2537 15.1663Z" fill="black"/>
</svg>
