<svg width="16" height="16" viewBox="0 0 16 16" fill="none" xmlns="http://www.w3.org/2000/svg">
<path fill-rule="evenodd" clip-rule="evenodd" d="M3.70052 3.1652L1.85735 1.63973C1.33418 1.20673 1.33418 0.499629 1.85735 0.066596C1.94576 -0.00657063 2.03102 0.000162697 2.13948 0.000162697H9.22962C9.30727 0.000162697 9.37739 0.0268961 9.42721 0.0698961C9.94922 0.51263 9.94313 1.2095 9.42326 1.63973L7.58009 3.1652C7.89557 3.29686 8.10549 3.56603 8.10549 3.86906V4.1404C8.10549 4.38093 7.97363 4.5988 7.76327 4.74446L9.63374 6.29253C10.0134 6.60676 10.3375 6.96556 10.5926 7.3524C10.9871 7.3939 11.3001 7.61106 11.4109 7.9278L11.7079 8.776C11.7248 8.81883 11.7362 8.8534 11.8037 8.86837C11.8525 8.87916 11.8906 8.86976 11.9249 8.84133L13.9629 7.15456L13.7823 7.00506C13.612 6.86406 13.643 6.6346 13.897 6.59693L15.5208 6.35626C15.7142 6.32576 15.8769 6.46303 15.8434 6.61756L15.5557 7.94703C15.5213 8.1587 15.2392 8.21083 15.0893 8.08676L14.8938 7.925L12.6929 9.74657C12.3097 10.0637 11.7623 10.1496 11.2619 9.98013C11.2189 10.4248 11.0999 10.8613 10.9073 11.2784C11.0037 11.3135 11.0711 11.3932 11.0711 11.486V14.6532C11.0711 14.7784 10.9485 14.8799 10.7972 14.8799H9.56036C9.40908 14.8799 9.28644 14.7784 9.28644 14.6532V13.1665C9.11849 13.2836 8.94362 13.392 8.76137 13.4917V14.6532C8.76137 14.7784 8.63873 14.8799 8.48746 14.8799H7.25064C7.09937 14.8799 6.97673 14.7784 6.97673 14.6532V14.1338C5.65581 14.3984 4.25974 14.2662 3.04145 13.7458C1.91346 13.2641 1.39789 12.8622 0.753847 11.9381C-0.51197 10.1217 -0.163426 7.79093 1.647 6.29256L3.51747 4.7445C3.30707 4.5988 3.17525 4.381 3.17525 4.14043V3.8691C3.17517 3.56603 3.38508 3.29683 3.70052 3.1652ZM6.90669 3.08136L9.03593 1.31913C9.3181 1.08556 9.34428 0.712596 9.10605 0.453596H2.17456C1.93629 0.712596 1.96247 1.08556 2.24468 1.31913L4.37393 3.08136H6.90669ZM4.07182 4.9268L2.03428 6.61313C0.397611 7.9677 0.0833415 10.0725 1.22672 11.7131C1.81889 12.5628 2.25318 12.9002 3.29172 13.3438C4.43063 13.8302 5.74897 13.9402 6.97661 13.6666V12.9868C6.97661 12.8616 7.09925 12.7601 7.25052 12.7601H8.48734C8.61908 12.7601 8.72903 12.837 8.75529 12.9396C8.95268 12.8139 9.10541 12.6986 9.28632 12.5491V11.486C9.28632 11.3608 9.40896 11.2593 9.56024 11.2593H10.3261C10.4522 11.0139 10.549 10.7608 10.6164 10.5036C10.6905 10.221 10.7298 9.93483 10.7341 9.64983C10.6293 9.53777 10.551 9.4068 10.5037 9.26087L10.3174 8.68546L8.49902 10.1904C8.44932 10.2323 8.38009 10.2584 8.30348 10.2584H7.25386C6.98055 10.2584 6.83451 10.0272 7.02284 9.87136L9.78872 7.58226C9.85924 7.5239 9.93766 7.4759 10.0221 7.43866C9.807 7.13843 9.54928 6.8639 9.24633 6.61316L7.20875 4.9268H4.07182ZM10.4588 7.79776C10.3511 7.8093 10.2829 7.81443 10.1761 7.9028L7.87785 9.8049H8.19011L10.2653 8.08743C10.411 7.9668 10.6726 8.01416 10.7267 8.19996L11.0323 9.14393C11.1847 9.61436 11.8888 9.7708 12.3055 9.42597L14.7001 7.4441C14.8071 7.35556 14.9805 7.35556 15.0875 7.4441L15.1067 7.46L15.2371 6.85716L14.5088 6.96513L14.544 6.9943C14.651 7.08283 14.651 7.22636 14.544 7.31486L12.3123 9.1619C11.9486 9.4629 11.3155 9.33213 11.1836 8.90173L10.8866 8.05353C10.8306 7.8935 10.6589 7.79356 10.4588 7.79776ZM7.15374 3.5348H4.12692C3.90532 3.5348 3.72303 3.68566 3.72303 3.86906V4.1404C3.72303 4.3238 3.90532 4.47466 4.12692 4.47466H7.15374C7.37533 4.47466 7.55762 4.3238 7.55762 4.1404V3.86906C7.55762 3.68566 7.37533 3.5348 7.15374 3.5348ZM5.3819 9.23567H5.45307V9.285C5.45307 9.4102 5.57571 9.5117 5.72698 9.5117C5.87825 9.5117 6.00089 9.4102 6.00089 9.285V9.21953C6.45492 9.12213 6.619 8.6494 6.28081 8.3695C6.0802 8.20346 5.88357 8.2206 5.63495 8.2206C5.54924 8.2206 5.54924 8.1124 5.63495 8.1124H6.10057C6.25185 8.1124 6.37449 8.0109 6.37449 7.8857C6.37449 7.7605 6.25185 7.659 6.10057 7.659H6.00089V7.60966C6.00089 7.48446 5.87825 7.38296 5.72698 7.38296C5.57566 7.38296 5.45307 7.48446 5.45307 7.60966V7.68186C5.01725 7.79443 4.87286 8.25303 5.20167 8.52517C5.40228 8.6912 5.5989 8.67406 5.84752 8.67406C5.93323 8.67406 5.93323 8.78226 5.84752 8.78226H5.3819C5.23059 8.78226 5.10799 8.88377 5.10799 9.00897C5.10799 9.13417 5.23063 9.23567 5.3819 9.23567ZM5.74124 6.8193C4.65489 6.8193 3.77418 7.54823 3.77418 8.44733C3.77418 9.3464 4.65493 10.0753 5.74124 10.0753C6.82755 10.0753 7.70829 9.3464 7.70829 8.44733C7.70829 7.54823 6.82755 6.8193 5.74124 6.8193ZM6.74478 7.61673C6.19059 7.15806 5.29188 7.15806 4.73765 7.61673C4.18346 8.0754 4.18346 8.81923 4.73765 9.2779C5.29184 9.73657 6.19059 9.73657 6.74478 9.2779C7.29897 8.8192 7.29897 8.0754 6.74478 7.61673ZM8.21342 13.2135H7.52447V14.4265H8.21342V13.2135ZM10.5232 11.7127H9.83423V14.4265H10.5232V11.7127ZM11.8927 10.3132C11.7414 10.3132 11.6188 10.4147 11.6188 10.54V14.6532C11.6188 14.7784 11.7414 14.8799 11.8927 14.8799H13.1295C13.2808 14.8799 13.4034 14.7784 13.4034 14.6532V10.54C13.4034 10.4148 13.2808 10.3132 13.1295 10.3132H11.8927ZM12.8556 10.7667H12.1666V14.4265H12.8556V10.7667ZM14.2434 9.14263C14.0921 9.14263 13.9695 9.24413 13.9695 9.36933V14.6532C13.9695 14.7784 14.0922 14.8799 14.2434 14.8799H15.4802C15.6315 14.8799 15.7542 14.7784 15.7542 14.6532V9.36933C15.7542 9.24413 15.6315 9.14263 15.4802 9.14263H14.2434ZM15.2063 9.59606H14.5173V14.4265H15.2063V9.59606H15.2063ZM0.761177 16C0.609903 16 0.487264 15.8985 0.487264 15.7733C0.487264 15.6481 0.609903 15.5466 0.761177 15.5466H15.726C15.8773 15.5466 16 15.6481 16 15.7733C16 15.8985 15.8774 16 15.726 16H0.761177Z" fill="#FFA268"/>
</svg>
