<svg width="18" height="20" viewBox="0 0 18 20" fill="none" xmlns="http://www.w3.org/2000/svg">
<path d="M9 20C8.20435 20 7.44129 19.6758 6.87868 19.0988C6.31607 18.5217 6 17.7391 6 16.923C6 16.719 6.07902 16.5234 6.21967 16.3791C6.36032 16.2349 6.55109 16.1538 6.75 16.1538H11.25C11.4489 16.1538 11.6397 16.2349 11.7803 16.3791C11.921 16.5234 12 16.719 12 16.923C12 17.7391 11.6839 18.5217 11.1213 19.0988C10.5587 19.6758 9.79565 20 9 20ZM7.7025 17.6923C7.83436 17.9254 8.02362 18.1189 8.25133 18.2534C8.47904 18.388 8.73722 18.4588 9 18.4588C9.26278 18.4588 9.52096 18.388 9.74867 18.2534C9.97638 18.1189 10.1656 17.9254 10.2975 17.6923H7.7025Z" fill="black"/>
<path d="M10.5 3.07692H7.5C7.30109 3.07692 7.11032 2.99588 6.96967 2.85162C6.82902 2.70736 6.75 2.51171 6.75 2.30769C6.75 1.69565 6.98705 1.10868 7.40901 0.675907C7.83097 0.243131 8.40326 0 9 0C9.59674 0 10.169 0.243131 10.591 0.675907C11.0129 1.10868 11.25 1.69565 11.25 2.30769C11.25 2.51171 11.171 2.70736 11.0303 2.85162C10.8897 2.99588 10.6989 3.07692 10.5 3.07692Z" fill="black"/>
<path d="M17.25 17.6924H0.750002C0.551089 17.6924 0.360324 17.6114 0.219672 17.4671C0.0790194 17.3229 1.5833e-06 17.1272 1.5833e-06 16.9232C-0.000656166 16.0545 0.203632 15.1985 0.595429 14.4283C0.987227 13.6581 1.5549 12.9965 2.25 12.5001V8.46165C2.24996 6.63351 2.95494 4.87955 4.21109 3.58254C5.46725 2.28553 7.1726 1.55076 8.955 1.53857H9.0375C10.8277 1.53857 12.5446 2.26797 13.8105 3.5663C15.0763 4.86462 15.7875 6.62554 15.7875 8.46165V12.5001C16.4757 13.0008 17.0361 13.6642 17.4212 14.4341C17.8063 15.204 18.0049 16.0578 18 16.9232C18 17.1272 17.921 17.3229 17.7803 17.4671C17.6397 17.6114 17.4489 17.6924 17.25 17.6924ZM1.575 16.154H16.425C16.3188 15.6207 16.1034 15.1166 15.7931 14.675C15.4828 14.2334 15.0847 13.8644 14.625 13.5924C14.5105 13.5246 14.4156 13.4271 14.3497 13.3095C14.2839 13.192 14.2495 13.0587 14.25 12.9232V8.46165C14.25 7.03356 13.6969 5.66396 12.7123 4.65415C11.7277 3.64434 10.3924 3.07704 9 3.07704C7.60762 3.07704 6.27226 3.64434 5.28769 4.65415C4.30313 5.66396 3.75 7.03356 3.75 8.46165V12.9232C3.75053 13.0587 3.71612 13.192 3.65027 13.3095C3.58442 13.4271 3.48945 13.5246 3.375 13.5924C2.91533 13.8644 2.51719 14.2334 2.2069 14.675C1.89661 15.1166 1.68123 15.6207 1.575 16.154Z" fill="black"/>
</svg>
