<svg width="10" height="10" viewBox="0 0 10 10" fill="none" xmlns="http://www.w3.org/2000/svg">
<path d="M3.85417 0H0.729167C0.327083 0 0 0.327083 0 0.729167V2.60417C0 3.00625 0.327083 3.33333 0.729167 3.33333H3.85417C4.25625 3.33333 4.58333 3.00625 4.58333 2.60417V0.729167C4.58333 0.327083 4.25625 0 3.85417 0Z" fill="#1B1B1B"/>
<path d="M3.85417 4.16699H0.729167C0.327083 4.16699 0 4.49408 0 4.89616V9.27116C0 9.67324 0.327083 10.0003 0.729167 10.0003H3.85417C4.25625 10.0003 4.58333 9.67324 4.58333 9.27116V4.89616C4.58333 4.49408 4.25625 4.16699 3.85417 4.16699Z" fill="#1B1B1B"/>
<path d="M9.27214 6.66699H6.14714C5.74505 6.66699 5.41797 6.99408 5.41797 7.39616V9.27116C5.41797 9.67324 5.74505 10.0003 6.14714 10.0003H9.27214C9.67422 10.0003 10.0013 9.67324 10.0013 9.27116V7.39616C10.0013 6.99408 9.67422 6.66699 9.27214 6.66699Z" fill="#1B1B1B"/>
<path d="M9.27214 0H6.14714C5.74505 0 5.41797 0.327083 5.41797 0.729167V5.10417C5.41797 5.50625 5.74505 5.83333 6.14714 5.83333H9.27214C9.67422 5.83333 10.0013 5.50625 10.0013 5.10417V0.729167C10.0013 0.327083 9.67422 0 9.27214 0Z" fill="#1B1B1B"/>
</svg>
