<svg width="18" height="18" viewBox="0 0 18 18" fill="none" xmlns="http://www.w3.org/2000/svg">
<path d="M8.99998 17.9996C8.20434 17.9996 7.44128 17.7079 6.87868 17.1885C6.31607 16.6692 6 15.9648 6 15.2304C6 15.0468 6.07902 14.8707 6.21967 14.7409C6.36032 14.611 6.55108 14.5381 6.75 14.5381H11.25C11.4489 14.5381 11.6397 14.611 11.7803 14.7409C11.921 14.8707 12 15.0468 12 15.2304C12 15.9648 11.6839 16.6692 11.1213 17.1885C10.5587 17.7079 9.79563 17.9996 8.99998 17.9996ZM7.70249 15.9227C7.83435 16.1325 8.02361 16.3067 8.25132 16.4278C8.47903 16.5488 8.7372 16.6126 8.99998 16.6126C9.26277 16.6126 9.52094 16.5488 9.74865 16.4278C9.97636 16.3067 10.1656 16.1325 10.2975 15.9227H7.70249Z" fill="#FFA268"/>
<path d="M10.5 2.76923H7.5C7.30108 2.76923 7.11032 2.69629 6.96967 2.56646C6.82902 2.43663 6.75 2.26053 6.75 2.07692C6.75 1.52609 6.98705 0.997815 7.40901 0.608317C7.83096 0.218818 8.40325 0 8.99999 0C9.59672 0 10.169 0.218818 10.591 0.608317C11.0129 0.997815 11.25 1.52609 11.25 2.07692C11.25 2.26053 11.171 2.43663 11.0303 2.56646C10.8897 2.69629 10.6989 2.76923 10.5 2.76923Z" fill="#FFA268"/>
<path d="M17.2499 15.9232H0.749998C0.551086 15.9232 0.360322 15.8503 0.219671 15.7205C0.079019 15.5906 1.58329e-06 15.4145 1.58329e-06 15.2309C-0.000656163 14.4491 0.203631 13.6787 0.595426 12.9855C0.987222 12.2923 1.55489 11.6969 2.24999 11.2502V7.61553C2.24995 5.9702 2.95493 4.39165 4.21107 3.22434C5.46722 2.05703 7.17256 1.39573 8.95496 1.38477H9.03746C10.8277 1.38477 12.5445 2.04122 13.8104 3.20972C15.0763 4.37821 15.7874 5.96303 15.7874 7.61553V11.2502C16.4756 11.7007 17.036 12.2978 17.4211 12.9907C17.8063 13.6837 18.0048 14.4521 17.9999 15.2309C17.9999 15.4145 17.9209 15.5906 17.7802 15.7205C17.6396 15.8503 17.4488 15.9232 17.2499 15.9232ZM1.57499 14.5386H16.4249C16.3187 14.0587 16.1033 13.605 15.793 13.2076C15.4827 12.8101 15.0846 12.478 14.6249 12.2332C14.5105 12.1722 14.4155 12.0844 14.3497 11.9786C14.2838 11.8729 14.2494 11.7529 14.2499 11.6309V7.61553C14.2499 6.33026 13.6968 5.09762 12.7122 4.18879C11.7277 3.27996 10.3923 2.76938 8.99996 2.76938C7.60758 2.76938 6.27223 3.27996 5.28766 4.18879C4.3031 5.09762 3.74998 6.33026 3.74998 7.61553V11.6309C3.75051 11.7529 3.7161 11.8729 3.65025 11.9786C3.5844 12.0844 3.48944 12.1722 3.37498 12.2332C2.91532 12.478 2.51718 12.8101 2.20689 13.2076C1.8966 13.605 1.68122 14.0587 1.57499 14.5386Z" fill="#FFA268"/>
</svg>
