<svg width="18" height="18" viewBox="0 0 18 18" fill="none" xmlns="http://www.w3.org/2000/svg">
<path d="M16.901 5.33581H16.5115C16.8066 4.88715 16.9627 4.36673 16.9615 3.83562C16.9614 3.335 16.8235 2.84335 16.562 2.41072C16.3004 1.97808 15.9246 1.61989 15.4726 1.37261C15.0206 1.12533 14.5087 0.997774 13.9889 1.00293C13.4691 1.00809 12.96 1.14578 12.5135 1.40198C12.088 0.825695 11.4833 0.394616 10.7868 0.171038C10.0903 -0.0525396 9.33799 -0.0570355 8.63863 0.1582C7.93928 0.373436 7.32909 0.797255 6.89626 1.36841C6.46343 1.93956 6.23037 2.62846 6.23077 3.33556C6.23197 3.55941 6.25515 3.78266 6.3 4.00231H1.38462C1.01739 4.00231 0.66521 4.1428 0.405544 4.39288C0.145879 4.64296 0 4.98215 0 5.33581V13.3368C0 13.6905 0.145879 14.0297 0.405544 14.2798C0.66521 14.5298 1.01739 14.6703 1.38462 14.6703H4.56058C4.97544 15.6557 5.68663 16.4992 6.60283 17.0925C7.51903 17.6858 8.59843 18.0018 9.70247 18C10.8065 17.9982 11.8848 17.6787 12.7989 17.0824C13.7131 16.4861 14.4213 15.6404 14.8327 14.6537C15.6959 14.5828 16.5 14.2027 17.0864 13.5886C17.6728 12.9745 17.9988 12.1709 18 11.3366V6.39428C18 6.25528 17.9716 6.11764 17.9163 5.98922C17.8611 5.86081 17.7802 5.74412 17.6781 5.64583C17.576 5.54754 17.4549 5.46958 17.3215 5.41638C17.1882 5.36319 17.0453 5.33581 16.901 5.33581ZM9.69231 1.3353C10.2424 1.3375 10.7694 1.54894 11.1584 1.92359C11.5474 2.29823 11.767 2.80573 11.7692 3.33556C11.7674 3.73331 11.644 4.12173 11.4144 4.45237C11.2857 4.31137 11.1273 4.19833 10.9497 4.12074C10.7722 4.04315 10.5796 4.00278 10.3846 4.00231H7.73654C7.65792 3.7881 7.61697 3.56275 7.61539 3.33556C7.61766 2.80573 7.83721 2.29823 8.22622 1.92359C8.61522 1.54894 9.14217 1.3375 9.69231 1.3353ZM5.19231 11.3366V8.00282H4.32692C4.14331 8.00282 3.96722 7.93258 3.83739 7.80753C3.70756 7.68249 3.63462 7.5129 3.63462 7.33607C3.63462 7.15924 3.70756 6.98965 3.83739 6.86461C3.96722 6.73956 4.14331 6.66932 4.32692 6.66932H7.44231C7.62592 6.66932 7.80201 6.73956 7.93184 6.86461C8.06168 6.98965 8.13462 7.15924 8.13462 7.33607C8.13462 7.5129 8.06168 7.68249 7.93184 7.80753C7.80201 7.93258 7.62592 8.00282 7.44231 8.00282H6.57692V11.3366C6.57692 11.5134 6.50398 11.683 6.37415 11.808C6.24432 11.9331 6.06823 12.0033 5.88462 12.0033C5.701 12.0033 5.52491 11.9331 5.39508 11.808C5.26525 11.683 5.19231 11.5134 5.19231 11.3366ZM13.8462 12.6701C13.8462 13.7311 13.4085 14.7486 12.6295 15.4989C11.8505 16.2491 10.794 16.6706 9.69231 16.6706C8.96358 16.6669 8.24841 16.4805 7.61718 16.1298C6.98596 15.779 6.46043 15.2761 6.09231 14.6703H10.3846C10.7518 14.6703 11.104 14.5298 11.3637 14.2798C11.6234 14.0297 11.7692 13.6905 11.7692 13.3368V6.66932H13.8462V12.6701ZM14.0192 5.33581C13.7868 5.33568 13.5574 5.28546 13.3478 5.18883C13.1381 5.09221 12.9536 4.95163 12.8077 4.77741C13.0361 4.32862 13.1545 3.83535 13.1538 3.33556C13.1546 3.10291 13.1284 2.8709 13.076 2.6438C13.3459 2.44267 13.6779 2.33413 14.0192 2.33543C14.4324 2.33543 14.8286 2.49349 15.1207 2.77483C15.4128 3.05617 15.5769 3.43775 15.5769 3.83562C15.5769 4.2335 15.4128 4.61508 15.1207 4.89642C14.8286 5.17776 14.4324 5.33581 14.0192 5.33581ZM16.6154 11.3366C16.6142 11.7553 16.4766 12.1631 16.222 12.5026C15.9674 12.842 15.6086 13.0959 15.1962 13.2285C15.2209 13.0433 15.2324 12.8568 15.2308 12.6701V6.66932H16.6154V11.3366Z" fill="#FFA268"/>
</svg>
