<svg width="16" height="16" viewBox="0 0 16 16" fill="none" xmlns="http://www.w3.org/2000/svg">
<path d="M8 0C3.582 0 0 3.58167 0 8C0 12.4183 3.582 16 8 16C12.4187 16 16 12.4183 16 8C16 3.58167 12.4187 0 8 0ZM8 4.571C8.93633 4.571 9.69467 5.32933 9.69467 6.26533C9.69467 7.20167 8.93633 7.96 8 7.96C7.06433 7.96 6.30567 7.20167 6.30567 6.26533C6.30567 5.32933 7.06433 4.571 8 4.571ZM10.8607 12.5633C10.0303 13.0757 9.05533 13.3763 8.00767 13.3763C6.954 13.3763 5.973 13.072 5.13967 12.554V9.10867C5.13967 8.80733 5.384 8.56267 5.68567 8.56267H10.315C10.6163 8.56267 10.861 8.807 10.861 9.10867L10.8607 12.5633Z" fill="#FFA268"/>
</svg>
