<svg width="16" height="16" viewBox="0 0 16 16" fill="none" xmlns="http://www.w3.org/2000/svg">
<path d="M12.4635 15.996C12.4357 16 12.404 16 12.3762 16C11.3443 15.9643 10.4473 15.7022 9.58207 15.3052C8.19692 14.6739 6.98243 13.7925 5.83938 12.8039C4.69634 11.8193 3.64457 10.7354 2.696 9.56412C1.7395 8.38097 0.913962 7.12238 0.394035 5.68115C0.171776 5.08561 0.0408016 4.46227 0.00508139 3.82702C-0.0504834 2.69151 0.350377 1.73863 1.17194 0.960449C1.51327 0.634884 1.85856 0.309318 2.29911 0.114772C2.77141 -0.0956544 3.20799 -0.016248 3.55329 0.349021C3.83111 0.638854 4.06528 0.976331 4.29151 1.30984C4.79159 2.05626 5.28374 2.81459 5.76001 3.57689C5.95845 3.89054 6.0418 4.23993 5.95051 4.61314C5.87907 4.91488 5.6965 5.13722 5.46631 5.33177C5.26786 5.50249 5.06941 5.67321 4.88288 5.85585C4.42645 6.30846 4.36692 6.84049 4.59711 7.42015C4.81937 7.97997 5.18054 8.4564 5.57347 8.90108C6.20849 9.62368 6.87924 10.3145 7.66905 10.8704C7.9826 11.0927 8.31599 11.2753 8.66922 11.4222C9.20105 11.6366 9.69717 11.5334 10.1139 11.1245C10.3004 10.9418 10.4711 10.7433 10.6418 10.5448C11.1419 9.94924 11.7848 9.83013 12.4357 10.247C13.4041 10.8664 14.3646 11.5016 15.3171 12.1488C15.5156 12.2917 15.6863 12.4704 15.8212 12.6729C16.0752 13.0381 16.0435 13.4471 15.8212 13.8084C15.3052 14.662 14.6305 15.3608 13.6899 15.7499C13.4597 15.8372 13.2255 15.8968 12.9834 15.9365C12.8128 15.9682 12.6381 15.9841 12.4635 15.996Z" fill="#FFA167"/>
</svg>
