<svg width="12" height="10" viewBox="0 0 12 10" fill="none" xmlns="http://www.w3.org/2000/svg">
<g clip-path="url(#clip0_1032_7128)">
<path d="M0.1875 9.21875H11.8125V9.84375H0.1875V9.21875Z" fill="#1B1B1B"/>
<path d="M10.125 2.34375H11.25V8.59375H10.125V2.34375Z" fill="#1B1B1B"/>
<path d="M8.25 3.28125H9.375V8.59375H8.25V3.28125Z" fill="#1B1B1B"/>
<path d="M6.375 4.21875H7.5V8.59375H6.375V4.21875Z" fill="#1B1B1B"/>
<path d="M4.5 5.15625H5.625V8.59375H4.5V5.15625Z" fill="#1B1B1B"/>
<path d="M2.625 6.09375H3.75V8.59375H2.625V6.09375Z" fill="#1B1B1B"/>
<path d="M0.75 7.03125H1.875V8.59375H0.75V7.03125Z" fill="#1B1B1B"/>
<path d="M1.59375 2.1875C1.46396 2.1875 1.33708 2.15543 1.22916 2.09534C1.12124 2.03524 1.03712 1.94983 0.987454 1.84991C0.937784 1.74998 0.924788 1.64002 0.95011 1.53393C0.975431 1.42785 1.03793 1.33041 1.12971 1.25393C1.22149 1.17744 1.33842 1.12536 1.46572 1.10426C1.59302 1.08316 1.72497 1.09399 1.84489 1.13538C1.9648 1.17677 2.06729 1.24686 2.1394 1.3368C2.21151 1.42673 2.25 1.53246 2.25 1.64062C2.25 1.72351 2.28951 1.80299 2.35984 1.8616C2.43016 1.9202 2.52554 1.95312 2.625 1.95312C2.72446 1.95312 2.81984 1.9202 2.89016 1.8616C2.96049 1.80299 3 1.72351 3 1.64062C2.99948 1.38453 2.8984 1.13562 2.71219 0.931887C2.52598 0.728158 2.26488 0.58081 1.96875 0.512344V0.46875C1.96875 0.38587 1.92924 0.306384 1.85891 0.247779C1.78859 0.189174 1.69321 0.15625 1.59375 0.15625C1.49429 0.15625 1.39891 0.189174 1.32858 0.247779C1.25826 0.306384 1.21875 0.38587 1.21875 0.46875V0.512344C0.892057 0.588744 0.609529 0.761003 0.42327 0.997354C0.23701 1.2337 0.159581 1.51821 0.20526 1.79839C0.25094 2.07858 0.416648 2.33556 0.671825 2.52193C0.927002 2.7083 1.25444 2.8115 1.59375 2.8125C1.72354 2.8125 1.85042 2.84457 1.95834 2.90467C2.06626 2.96476 2.15038 3.05017 2.20005 3.15009C2.24972 3.25002 2.26271 3.35998 2.23739 3.46606C2.21207 3.57215 2.14957 3.66959 2.05779 3.74607C1.96601 3.82256 1.84908 3.87464 1.72178 3.89574C1.59448 3.91684 1.46253 3.90601 1.34261 3.86462C1.2227 3.82323 1.12021 3.75314 1.0481 3.6632C0.975988 3.57327 0.9375 3.46754 0.9375 3.35938C0.9375 3.27649 0.897991 3.19701 0.827665 3.1384C0.757339 3.0798 0.661956 3.04688 0.5625 3.04688C0.463044 3.04688 0.367661 3.0798 0.297335 3.1384C0.227009 3.19701 0.1875 3.27649 0.1875 3.35938C0.188022 3.61547 0.289104 3.86438 0.475312 4.06811C0.661521 4.27184 0.922623 4.41919 1.21875 4.48766V4.53125C1.21875 4.61413 1.25826 4.69362 1.32858 4.75222C1.39891 4.81083 1.49429 4.84375 1.59375 4.84375C1.69321 4.84375 1.78859 4.81083 1.85891 4.75222C1.92924 4.69362 1.96875 4.61413 1.96875 4.53125V4.48766C2.29544 4.41126 2.57797 4.239 2.76423 4.00265C2.95049 3.7663 3.02792 3.48179 2.98224 3.20161C2.93656 2.92142 2.77085 2.66444 2.51568 2.47807C2.2605 2.2917 1.93306 2.1885 1.59375 2.1875Z" fill="#1B1B1B"/>
<path d="M8.8141 0H7.6891C7.63937 0 7.59168 0.016462 7.55652 0.0457646C7.52136 0.0750671 7.5016 0.11481 7.5016 0.15625C7.5016 0.19769 7.52136 0.237433 7.55652 0.266735C7.59168 0.296038 7.63937 0.3125 7.6891 0.3125H8.36148L4.18154 3.79578C4.14739 3.82525 4.12849 3.86472 4.12891 3.90569C4.12934 3.94666 4.14906 3.98585 4.18382 4.01482C4.21859 4.04379 4.26562 4.06022 4.31478 4.06057C4.36394 4.06093 4.4113 4.04518 4.44667 4.01672L8.6266 0.533437V1.09375C8.6266 1.13519 8.64636 1.17493 8.68152 1.20424C8.71668 1.23354 8.76437 1.25 8.8141 1.25C8.86383 1.25 8.91152 1.23354 8.94669 1.20424C8.98185 1.17493 9.0016 1.13519 9.0016 1.09375V0.15625C9.0016 0.11481 8.98185 0.0750671 8.94669 0.0457646C8.91152 0.016462 8.86383 0 8.8141 0Z" fill="#1B1B1B"/>
</g>
<defs>
<clipPath id="clip0_1032_7128">
<rect width="12" height="10" fill="white"/>
</clipPath>
</defs>
</svg>
