<svg width="40" height="40" viewBox="0 0 40 40" fill="none" xmlns="http://www.w3.org/2000/svg">
<rect x="0.5" y="0.5" width="39" height="39" rx="19.5" stroke="#1B1B1B"/>
<path d="M29.229 14.2726H16.152C15.948 14.2726 15.7524 14.1864 15.6081 14.033C15.4639 13.8795 15.3828 13.6714 15.3828 13.4544C15.3828 13.2374 15.4639 13.0293 15.6081 12.8759C15.7524 12.7224 15.948 12.6362 16.152 12.6362H29.229C29.433 12.6362 29.6286 12.7224 29.7729 12.8759C29.9172 13.0293 29.9982 13.2374 29.9982 13.4544C29.9982 13.6714 29.9172 13.8795 29.7729 14.033C29.6286 14.1864 29.433 14.2726 29.229 14.2726Z" fill="#1B1B1B"/>
<path d="M13.0769 14.2726H10.7692C10.5652 14.2726 10.3696 14.1864 10.2253 14.033C10.081 13.8795 10 13.6714 10 13.4544C10 13.2374 10.081 13.0293 10.2253 12.8759C10.3696 12.7224 10.5652 12.6362 10.7692 12.6362H13.0769C13.2809 12.6362 13.4766 12.7224 13.6209 12.8759C13.7651 13.0293 13.8462 13.2374 13.8462 13.4544C13.8462 13.6714 13.7651 13.8795 13.6209 14.033C13.4766 14.1864 13.2809 14.2726 13.0769 14.2726Z" fill="#1B1B1B"/>
<path d="M23.8462 20.818H10.7692C10.5652 20.818 10.3696 20.7318 10.2253 20.5784C10.081 20.4249 10 20.2168 10 19.9998C10 19.7828 10.081 19.5747 10.2253 19.4213C10.3696 19.2678 10.5652 19.1816 10.7692 19.1816H23.8462C24.0502 19.1816 24.2458 19.2678 24.3901 19.4213C24.5343 19.5747 24.6154 19.7828 24.6154 19.9998C24.6154 20.2168 24.5343 20.4249 24.3901 20.5784C24.2458 20.7318 24.0502 20.818 23.8462 20.818Z" fill="#1B1B1B"/>
<path d="M16.1538 27.3634H10.7692C10.5652 27.3634 10.3696 27.2772 10.2253 27.1238C10.081 26.9703 10 26.7622 10 26.5452C10 26.3282 10.081 26.1201 10.2253 25.9667C10.3696 25.8133 10.5652 25.7271 10.7692 25.7271H16.1538C16.3579 25.7271 16.5535 25.8133 16.6978 25.9667C16.842 26.1201 16.9231 26.3282 16.9231 26.5452C16.9231 26.7622 16.842 26.9703 16.6978 27.1238C16.5535 27.2772 16.3579 27.3634 16.1538 27.3634Z" fill="#1B1B1B"/>
<path d="M14.6163 15.9091C14.1599 15.9091 13.7137 15.7651 13.3342 15.4954C12.9547 15.2257 12.6589 14.8424 12.4843 14.3939C12.3096 13.9454 12.2639 13.4518 12.3529 12.9757C12.442 12.4996 12.6618 12.0622 12.9845 11.7189C13.3072 11.3756 13.7184 11.1419 14.1661 11.0472C14.6137 10.9525 15.0777 11.0011 15.4994 11.1868C15.9211 11.3726 16.2815 11.6872 16.5351 12.0909C16.7886 12.4945 16.924 12.9691 16.924 13.4545C16.924 14.1055 16.6808 14.7299 16.2481 15.1902C15.8153 15.6505 15.2283 15.9091 14.6163 15.9091ZM14.6163 12.6364C14.4641 12.6364 14.3154 12.6844 14.1889 12.7743C14.0624 12.8642 13.9638 12.9919 13.9056 13.1414C13.8474 13.2909 13.8322 13.4555 13.8618 13.6142C13.8915 13.7729 13.9648 13.9187 14.0724 14.0331C14.1799 14.1475 14.317 14.2254 14.4662 14.257C14.6154 14.2886 14.7701 14.2724 14.9107 14.2104C15.0512 14.1485 15.1714 14.0437 15.2559 13.9091C15.3404 13.7746 15.3855 13.6164 15.3855 13.4545C15.3855 13.2376 15.3045 13.0294 15.1602 12.876C15.016 12.7226 14.8203 12.6364 14.6163 12.6364Z" fill="#1B1B1B"/>
<path d="M25.3858 22.4545C24.9294 22.4545 24.4832 22.3105 24.1037 22.0408C23.7242 21.7711 23.4285 21.3878 23.2538 20.9393C23.0791 20.4908 23.0334 19.9972 23.1225 19.5211C23.2115 19.045 23.4313 18.6076 23.754 18.2643C24.0768 17.9211 24.488 17.6873 24.9356 17.5926C25.3833 17.4979 25.8473 17.5465 26.2689 17.7323C26.6906 17.918 27.051 18.2326 27.3046 18.6363C27.5582 19.0399 27.6935 19.5145 27.6935 20C27.6935 20.6509 27.4504 21.2753 27.0176 21.7356C26.5848 22.1959 25.9979 22.4545 25.3858 22.4545ZM25.3858 19.1818C25.2337 19.1818 25.085 19.2298 24.9585 19.3197C24.832 19.4096 24.7334 19.5373 24.6751 19.6869C24.6169 19.8364 24.6017 20.0009 24.6314 20.1596C24.661 20.3183 24.7343 20.4641 24.8419 20.5785C24.9495 20.6929 25.0865 20.7708 25.2357 20.8024C25.385 20.834 25.5396 20.8178 25.6802 20.7559C25.8207 20.6939 25.9409 20.5891 26.0254 20.4545C26.1099 20.32 26.155 20.1618 26.155 20C26.155 19.783 26.074 19.5749 25.9297 19.4214C25.7855 19.268 25.5898 19.1818 25.3858 19.1818Z" fill="#1B1B1B"/>
<path d="M17.6905 28.9999C17.2341 28.9999 16.7879 28.856 16.4084 28.5862C16.0289 28.3165 15.7331 27.9332 15.5585 27.4847C15.3838 27.0362 15.3381 26.5426 15.4272 26.0665C15.5162 25.5904 15.736 25.153 16.0587 24.8097C16.3815 24.4665 16.7926 24.2327 17.2403 24.138C17.6879 24.0433 18.1519 24.0919 18.5736 24.2777C18.9953 24.4634 19.3557 24.778 19.6093 25.1817C19.8629 25.5853 19.9982 26.0599 19.9982 26.5454C19.9982 27.1964 19.7551 27.8207 19.3223 28.281C18.8895 28.7413 18.3025 28.9999 17.6905 28.9999ZM17.6905 25.7272C17.5384 25.7272 17.3896 25.7752 17.2631 25.8651C17.1366 25.955 17.0381 26.0828 16.9798 26.2323C16.9216 26.3818 16.9064 26.5463 16.9361 26.705C16.9657 26.8637 17.039 27.0095 17.1466 27.1239C17.2542 27.2383 17.3912 27.3163 17.5404 27.3478C17.6897 27.3794 17.8443 27.3632 17.9849 27.3013C18.1254 27.2393 18.2456 27.1345 18.3301 26.9999C18.4146 26.8654 18.4597 26.7072 18.4597 26.5454C18.4597 26.3284 18.3787 26.1203 18.2344 25.9668C18.0902 25.8134 17.8945 25.7272 17.6905 25.7272Z" fill="#1B1B1B"/>
<path d="M29.2332 20.818H26.9255C26.7215 20.818 26.5258 20.7318 26.3816 20.5784C26.2373 20.4249 26.1562 20.2168 26.1562 19.9998C26.1562 19.7828 26.2373 19.5747 26.3816 19.4213C26.5258 19.2678 26.7215 19.1816 26.9255 19.1816H29.2332C29.4372 19.1816 29.6328 19.2678 29.7771 19.4213C29.9214 19.5747 30.0024 19.7828 30.0024 19.9998C30.0024 20.2168 29.9214 20.4249 29.7771 20.5784C29.6328 20.7318 29.4372 20.818 29.2332 20.818Z" fill="#1B1B1B"/>
<path d="M29.2302 27.3634H19.2302C19.0262 27.3634 18.8305 27.2772 18.6862 27.1238C18.542 26.9703 18.4609 26.7622 18.4609 26.5452C18.4609 26.3282 18.542 26.1201 18.6862 25.9667C18.8305 25.8133 19.0262 25.7271 19.2302 25.7271H29.2302C29.4342 25.7271 29.6298 25.8133 29.7741 25.9667C29.9184 26.1201 29.9994 26.3282 29.9994 26.5452C29.9994 26.7622 29.9184 26.9703 29.7741 27.1238C29.6298 27.2772 29.4342 27.3634 29.2302 27.3634Z" fill="#1B1B1B"/>
</svg>
